<?xml version="1.0" standalone="no"?>
<!DOCTYPE svg PUBLIC "-//W3C//DTD SVG 20010904//EN"
 "http://www.w3.org/TR/2001/REC-SVG-20010904/DTD/svg10.dtd">
<svg version="1.0" xmlns="http://www.w3.org/2000/svg"
 width="500.000000pt" height="500.000000pt" viewBox="0 0 500.000000 500.000000"
 preserveAspectRatio="xMidYMid meet">
<metadata>
Created by potrace 1.11, written by Peter Selinger 2001-2013
</metadata>
<g transform="translate(0.000000,500.000000) scale(0.100000,-0.100000)"
fill="#000000" stroke="none">
<path d="M0 2500 l0 -2500 80 0 c56 0 94 6 131 20 56 23 84 28 174 34 36 3 90
17 134 35 41 17 79 31 86 31 8 0 10 9 7 25 -6 34 34 51 62 26 18 -15 19 -15
14 6 -4 14 0 24 9 27 9 4 11 2 7 -6 -5 -8 -2 -9 10 -5 10 4 21 7 24 7 4 0 1 4
-7 9 -9 6 17 20 85 46 139 53 195 77 191 82 -2 2 -25 -6 -51 -17 -26 -11 -60
-20 -74 -20 l-27 0 30 25 c30 25 62 34 50 14 -4 -5 10 -3 32 7 21 9 74 29 118
45 44 16 89 34 100 39 11 5 43 18 70 29 28 10 76 31 107 45 31 14 59 26 61 26
3 0 10 -13 16 -30 5 -16 14 -30 20 -30 5 0 14 -13 20 -30 11 -32 40 -40 59
-17 13 15 -9 109 -26 115 -32 10 0 32 118 79 112 44 130 49 130 34 0 -14 -14
-21 -60 -31 -34 -7 -59 -17 -58 -22 2 -5 7 -10 11 -10 20 0 102 16 182 37 50
13 155 37 235 55 80 17 149 35 154 41 6 5 13 9 16 9 3 0 -18 -25 -46 -55 -52
-55 -132 -195 -154 -271 l-12 -41 -87 -6 c-336 -23 -739 -63 -676 -66 l30 -2
-25 -15 c-16 -10 -18 -13 -5 -8 62 22 122 33 211 38 97 5 371 29 488 42 55 6
59 6 53 -12 -28 -92 -37 -141 -37 -212 0 -74 -2 -84 -19 -89 -12 -3 -17 -11
-14 -20 5 -12 7 -12 14 -1 7 10 9 10 9 1 0 -10 310 -13 1515 -13 l1515 0 0
1300 c0 715 -3 1300 -8 1300 -4 0 -23 -11 -42 -24 -19 -13 -91 -52 -160 -88
-69 -36 -219 -117 -335 -180 -115 -63 -276 -149 -357 -192 -143 -75 -147 -77
-138 -102 7 -17 7 -23 0 -19 -6 3 -10 13 -10 21 0 20 -19 17 -65 -9 -22 -13
-49 -26 -59 -30 -15 -6 -17 -5 -7 7 6 7 9 22 5 32 -4 14 -4 16 4 5 8 -11 12
-10 21 8 7 11 8 21 4 21 -4 0 -1 4 7 10 9 5 19 5 27 -2 10 -8 13 -5 13 12 0
13 2 21 5 18 3 -3 18 6 34 21 15 14 46 35 67 47 75 39 369 207 394 224 14 9
60 36 103 60 56 30 75 45 65 51 -7 5 -8 9 -3 10 56 5 60 7 187 84 106 64 107
65 170 99 76 41 78 43 78 97 0 42 -3 48 -22 51 -13 2 -23 10 -23 18 -1 20 -15
41 -24 36 -4 -3 -13 4 -20 16 -7 11 -8 18 -4 15 5 -3 7 8 5 26 l-4 32 23 -29
c13 -16 34 -41 45 -55 l21 -25 1 242 c2 237 1 242 -19 242 -11 0 -17 5 -14 10
3 6 -3 24 -15 40 -12 16 -18 34 -15 40 9 15 23 4 45 -38 12 -24 19 -30 20 -19
0 10 -5 28 -11 39 -8 15 -8 19 0 14 7 -5 11 7 11 34 0 30 -10 56 -35 96 -20
31 -32 53 -27 50 5 -3 20 -7 34 -10 26 -4 26 -4 26 60 -1 61 -6 78 -12 37 -2
-11 -11 -18 -25 -17 -11 0 -21 -3 -21 -8 0 -13 -22 -9 -41 8 -21 19 -46 10
-29 -11 9 -10 7 -16 -8 -24 -18 -9 -23 -5 -45 31 -14 23 -23 47 -20 53 7 20
34 13 44 -12 10 -26 13 -27 40 -12 16 8 18 13 9 24 -10 12 0 19 49 42 34 15
61 31 61 35 0 15 -33 8 -67 -13 -23 -15 -38 -18 -45 -11 -6 6 -6 12 3 17 8 5
10 4 5 -3 -9 -15 -1 -15 25 -1 12 6 18 17 15 27 -4 11 6 26 28 44 34 27 34 29
35 109 0 59 -4 87 -17 107 -15 24 -15 25 0 14 14 -11 16 -6 15 53 0 36 -5 69
-10 72 -6 4 -8 -1 -4 -11 4 -11 3 -15 -4 -11 -5 4 -8 12 -6 18 2 7 -2 27 -9
46 -19 47 -17 52 6 14 21 -36 34 -44 22 -15 -4 9 -42 79 -85 155 -44 76 -77
141 -74 144 3 3 13 -9 22 -26 8 -17 18 -31 21 -31 3 0 -11 28 -30 63 -19 34
-79 143 -134 242 l-100 180 -72 3 c-52 2 -76 -1 -82 -10 -6 -11 -10 -10 -17 1
-9 14 -46 12 -111 -4 -19 -5 -22 -4 -10 4 11 8 -197 11 -727 11 -409 0 -743
-3 -743 -6 0 -4 25 -53 55 -110 50 -93 54 -104 38 -113 -10 -5 -14 -13 -10
-17 4 -4 13 1 21 11 15 21 39 11 31 -13 -5 -19 140 -292 318 -597 166 -286
193 -326 214 -318 16 6 16 5 4 -10 -11 -15 -9 -24 20 -69 19 -29 39 -60 44
-69 6 -9 17 -27 26 -40 76 -112 133 -206 131 -216 -2 -7 1 -13 6 -13 5 0 34
-37 64 -82 139 -209 158 -237 282 -414 83 -119 208 -287 219 -295 9 -6 -9 -23
-36 -32 -16 -6 -11 -15 33 -73 27 -37 50 -71 50 -77 0 -5 6 -7 14 -4 9 4 14 0
14 -11 0 -9 2 -24 6 -33 14 -33 -23 -30 -49 4 -117 150 -612 898 -790 1194
-29 48 -58 84 -70 87 -14 4 -16 8 -8 14 9 6 3 24 -24 67 -158 263 -341 599
-519 950 l-141 280 -86 3 c-48 1 -87 0 -87 -4 0 -7 98 -238 223 -524 131 -301
226 -505 237 -508 6 -2 8 -7 5 -12 -8 -14 95 -224 106 -213 9 9 -21 87 -32 81
-3 -2 4 5 14 15 11 9 22 17 26 17 4 0 18 -23 31 -51 20 -43 22 -52 10 -60 -12
-7 -11 -9 6 -9 16 0 32 -22 71 -97 28 -54 76 -145 107 -201 30 -57 65 -122 76
-145 12 -23 34 -62 50 -87 16 -25 29 -53 29 -62 1 -10 5 -18 11 -18 5 0 17
-17 27 -37 9 -21 35 -67 56 -103 22 -36 45 -76 51 -90 6 -14 28 -51 49 -82 20
-31 37 -60 37 -63 0 -4 13 -25 28 -48 16 -23 32 -49 36 -57 7 -16 11 -23 69
-116 20 -34 37 -67 37 -73 0 -6 3 -11 8 -11 4 0 23 -28 41 -62 19 -35 47 -82
63 -105 l28 -42 -43 -25 c-24 -15 -49 -26 -55 -26 -6 0 -21 19 -33 42 -12 24
-36 66 -54 93 -17 28 -48 82 -69 120 -72 133 -60 90 35 -123 10 -23 19 -47 19
-53 0 -6 6 -25 14 -42 20 -45 26 -76 16 -82 -5 -3 -13 9 -19 27 -5 18 -21 65
-36 103 -14 39 -30 81 -35 95 -15 46 -98 238 -115 267 -22 38 -17 25 61 -167
36 -91 79 -205 94 -253 l28 -88 -21 -14 c-12 -7 -58 -34 -101 -59 -72 -40 -79
-47 -81 -78 -2 -18 2 -36 8 -40 8 -5 6 -8 -4 -8 -9 0 -22 -7 -29 -15 -18 -22
-10 -19 69 25 l72 39 21 -47 c12 -26 26 -50 32 -55 6 -4 -12 -5 -40 -1 -30 4
-59 2 -71 -5 -16 -8 -32 -6 -72 8 -50 19 -51 19 -40 -1 19 -36 2 -30 -20 8
-12 20 -24 34 -27 31 -7 -7 53 -89 73 -101 13 -7 13 -10 2 -17 -11 -7 -9 -9 6
-9 18 -1 19 -1 3 -11 -10 -5 -18 -15 -18 -20 0 -6 6 -7 13 -3 6 4 2 -4 -11
-18 -15 -17 -20 -28 -13 -33 6 -3 11 -11 11 -18 0 -6 -6 -2 -14 8 -8 11 -12
23 -10 27 3 5 0 8 -5 8 -6 0 -11 11 -11 25 0 14 -5 25 -11 25 -5 0 -8 4 -4 9
3 5 0 13 -6 16 -5 4 -8 13 -5 21 3 8 -1 14 -9 14 -8 0 -13 9 -12 20 1 11 5 20
9 20 5 0 5 8 0 18 -5 9 -9 53 -10 96 -2 95 -19 186 -35 186 -8 0 -7 3 2 9 9 6
10 11 2 15 -6 4 -11 12 -11 17 0 6 5 7 11 3 7 -4 10 -1 7 7 -3 8 -11 13 -17
12 -6 -2 -11 4 -11 13 0 8 5 12 10 9 5 -3 10 -2 10 4 0 5 -5 13 -10 16 -6 4
-8 11 -5 16 4 5 1 9 -5 9 -6 0 -9 4 -5 9 3 5 0 13 -6 16 -5 4 -8 13 -5 21 3 8
0 14 -6 14 -6 0 -6 6 3 17 7 10 9 15 5 11 -5 -4 -15 0 -22 10 -17 22 -18 35
-1 26 8 -5 8 -2 -2 9 -7 9 -10 17 -5 17 14 0 10 52 -8 85 -25 49 -76 216 -83
275 -3 30 -24 97 -45 150 -40 98 -60 163 -66 214 -2 16 -6 32 -9 34 -3 3 2 16
10 29 23 34 30 113 15 159 -7 22 -26 66 -42 100 -23 49 -35 63 -63 73 -39 14
-44 27 -17 47 15 12 13 12 -14 5 -25 -7 -41 -4 -80 16 -27 14 -51 28 -54 32
-3 4 -31 18 -62 31 -32 13 -82 46 -114 76 -32 29 -68 54 -81 57 -24 4 -96 -23
-107 -42 -4 -5 -14 -8 -24 -5 -12 4 -13 3 -4 -3 10 -7 8 -13 -7 -27 -14 -13
-21 -14 -27 -5 -4 7 -3 10 4 5 6 -3 13 -2 17 4 3 5 1 10 -5 10 -7 0 -10 7 -6
15 3 8 1 15 -4 15 -5 0 -9 17 -8 38 0 49 -12 72 -59 107 -36 29 -39 29 -172
30 -134 0 -137 -1 -203 -33 -37 -18 -81 -44 -97 -58 -17 -14 -34 -23 -39 -20
-8 5 -587 743 -654 834 l-28 37 40 125 c22 69 40 128 40 133 0 4 -326 7 -725
7 l-725 0 0 -2500z m3560 2460 c-24 -15 -37 -11 -16 5 11 8 22 12 25 9 3 -3
-1 -9 -9 -14z m740 10 c0 -5 -4 -10 -10 -10 -5 0 -10 5 -10 10 0 6 5 10 10 10
6 0 10 -4 10 -10z m-54 -19 c-8 -12 -46 -21 -46 -11 0 9 18 18 38 19 7 1 11
-3 8 -8z m-736 -16 c-7 -8 -20 -15 -29 -15 -13 1 -13 3 3 15 26 19 42 19 26 0z
m670 -3 c0 -5 -29 -20 -65 -34 -80 -32 -85 -23 -7 14 63 29 72 32 72 20z m471
-34 c5 -11 6 -18 1 -18 -6 0 -12 8 -16 18 -3 9 -9 24 -12 32 -5 13 -4 13 6 0
6 -8 15 -23 21 -32z m-23 -23 c-3 -3 -9 2 -12 12 -6 14 -5 15 5 6 7 -7 10 -15
7 -18z m-1232 0 c-23 -17 -36 -19 -36 -6 0 11 18 19 40 20 11 0 10 -3 -4 -14z
m619 -14 c-3 -5 -22 -15 -43 -22 -20 -7 -46 -18 -57 -25 -11 -7 -24 -14 -30
-15 -5 -1 -20 -5 -33 -10 -29 -11 -32 -11 -32 -1 0 5 15 14 33 19 17 6 59 23
92 37 65 28 79 31 70 17z m-679 -16 c-11 -8 -22 -12 -25 -9 -6 6 19 24 34 24
6 -1 1 -7 -9 -15z m-51 -24 c-3 -6 -11 -11 -17 -11 -6 0 -6 6 2 15 14 17 26
13 15 -4z m1434 -43 c13 -21 19 -38 14 -38 -7 0 -31 40 -51 85 -10 21 15 -11
37 -47z m-1539 -18 c-20 -13 -33 -13 -25 0 3 6 14 10 23 10 15 0 15 -2 2 -10z
m610 5 c0 -3 -20 -14 -44 -24 -24 -11 -69 -31 -100 -46 -62 -29 -89 -28 -34 1
89 48 178 82 178 69z m-660 -25 c0 -5 -10 -15 -22 -21 -23 -12 -23 -12 -4 10
21 23 26 26 26 11z m1666 -98 c20 -35 34 -65 31 -68 -5 -6 -87 138 -87 152 0
11 12 -6 56 -84z m-1436 69 c0 -11 -31 -24 -39 -16 -3 3 1 10 9 15 19 12 30
12 30 1z m-50 -31 c0 -5 -2 -10 -4 -10 -3 0 -8 5 -11 10 -3 6 -1 10 4 10 6 0
11 -4 11 -10z m250 -19 c0 -11 -59 -36 -67 -27 -3 3 9 12 28 20 41 18 39 18
39 7z m1170 -11 c6 -11 8 -20 6 -20 -3 0 -10 9 -16 20 -6 11 -8 20 -6 20 3 0
10 -9 16 -20z m50 -31 c6 -10 7 -19 2 -19 -5 0 -14 12 -20 26 -14 29 2 24 18
-7z m-79 -11 c16 -30 0 -36 -21 -8 -11 14 -20 28 -20 32 0 14 31 -4 41 -24z
m-1221 13 c0 -10 -24 -21 -43 -21 -7 0 -3 7 7 15 22 17 36 19 36 6z m1176 -8
c22 -29 17 -53 -8 -50 -12 2 -24 10 -26 17 -3 9 1 11 11 7 11 -4 14 -2 10 9
-4 11 -9 12 -18 4 -10 -8 -15 -8 -20 1 -7 11 10 29 29 29 5 0 15 -8 22 -17z
m-54 -28 c13 -28 11 -32 -17 -37 -16 -2 -19 2 -18 19 2 16 -2 21 -12 17 -18
-7 -19 -26 -3 -42 9 -9 8 -12 -4 -12 -9 0 -20 9 -23 20 -3 11 -11 20 -16 20
-21 0 -7 17 24 27 50 16 57 15 69 -12z m-1195 -2 c-9 -9 -20 -13 -24 -9 -4 4
-1 11 7 16 25 16 35 11 17 -7z m1083 -50 c15 -17 13 -20 -15 -26 -19 -3 -29 1
-37 17 -10 19 -10 20 5 7 19 -15 23 -1 6 16 -6 6 -8 17 -4 24 6 9 11 7 21 -7
7 -10 18 -24 24 -31z m320 27 c6 -11 8 -20 6 -20 -3 0 -10 9 -16 20 -6 11 -8
20 -6 20 3 0 10 -9 16 -20z m-1505 -29 c-3 -6 -11 -11 -17 -11 -6 0 -6 6 2 15
14 17 26 13 15 -4z m1044 -15 c23 -37 25 -46 12 -46 -5 0 -11 8 -15 18 -3 9
-10 27 -16 40 -14 32 -5 27 19 -12z m-2868 -192 c126 -156 319 -403 319 -410
0 -3 -8 0 -17 7 -16 13 -17 12 -4 -4 8 -9 16 -15 19 -12 7 7 42 -25 42 -38 0
-6 -10 -2 -22 9 l-23 19 19 -22 c10 -13 22 -20 26 -18 12 8 43 -33 34 -46 -4
-7 -3 -10 3 -6 6 4 16 1 22 -7 9 -10 7 -17 -6 -27 -15 -12 -16 -12 -10 4 4 10
3 16 -2 13 -11 -7 -50 36 -176 194 -59 74 -142 178 -184 230 -108 134 -179
228 -153 206 34 -30 26 -6 -18 52 -22 29 -40 57 -40 64 0 6 26 -23 58 -64 31
-42 82 -107 113 -144z m2937 204 c18 -18 15 -35 -8 -41 -14 -4 -24 1 -31 16
-9 18 -9 20 2 10 20 -20 31 -15 19 7 -12 22 -1 27 18 8z m-1529 -41 c-4 -45 0
-57 19 -50 14 5 15 4 4 -8 -11 -12 -15 -11 -28 5 -14 20 -15 88 -1 79 4 -2 7
-14 6 -26z m376 23 c-3 -5 -11 -10 -16 -10 -6 0 -7 5 -4 10 3 6 11 10 16 10 6
0 7 -4 4 -10z m982 -76 c-5 -6 -47 59 -47 72 0 5 12 -9 26 -29 14 -21 24 -41
21 -43z m63 21 c0 -5 -9 1 -20 15 -11 14 -20 30 -20 35 0 6 9 -1 20 -15 11
-14 20 -29 20 -35z m474 3 c8 -5 7 -8 -1 -8 -13 0 -43 38 -43 54 0 6 8 -1 17
-14 9 -14 22 -28 27 -32z m-1559 32 c-3 -5 -11 -10 -16 -10 -6 0 -7 5 -4 10 3
6 11 10 16 10 6 0 7 -4 4 -10z m1115 -21 c0 -5 -4 -9 -10 -9 -5 0 -10 7 -10
16 0 8 5 12 10 9 6 -3 10 -10 10 -16z m398 -12 c2 -15 -1 -27 -7 -27 -6 0 -11
9 -11 20 0 11 -4 20 -10 20 -5 0 -10 5 -10 11 0 24 35 2 38 -24z m-628 3 c6
-11 8 -20 6 -20 -3 0 -10 9 -16 20 -6 11 -8 20 -6 20 3 0 10 -9 16 -20z m59
-16 c12 -19 16 -32 11 -29 -11 7 -43 65 -36 65 2 0 13 -16 25 -36z m501 27 c0
-11 -31 -24 -39 -16 -3 3 1 10 9 15 19 12 30 12 30 1z m-60 -21 c0 -5 -7 -10
-16 -10 -8 0 -12 5 -9 10 3 6 10 10 16 10 5 0 9 -4 9 -10z m-390 -20 c0 -5 -5
-10 -11 -10 -5 0 -7 5 -4 10 3 6 8 10 11 10 2 0 4 -4 4 -10z m-60 -15 c7 -9 8
-15 2 -15 -5 0 -12 7 -16 15 -3 8 -4 15 -2 15 2 0 9 -7 16 -15z m-1234 -14
c-11 -17 6 -42 22 -36 9 3 13 3 9 -1 -4 -4 -2 -13 4 -20 11 -14 4 -34 -12 -34
-6 0 -18 19 -29 42 -14 32 -16 44 -7 50 16 10 19 10 13 -1z m1074 -11 c6 -11
8 -20 6 -20 -3 0 -10 9 -16 20 -6 11 -8 20 -6 20 3 0 10 -9 16 -20z m98 -5
c-3 -3 -9 2 -12 12 -6 14 -5 15 5 6 7 -7 10 -15 7 -18z m532 15 c0 -5 -4 -10
-10 -10 -5 0 -10 5 -10 10 0 6 5 10 10 10 6 0 10 -4 10 -10z m277 -55 c21 -42
1 -19 -26 30 -13 22 -15 31 -6 20 9 -11 23 -33 32 -50z m18 25 c27 -43 29 -50
17 -50 -5 0 -17 17 -27 38 -28 53 -27 52 -21 52 3 0 17 -18 31 -40z m-355 21
c0 -11 -31 -24 -39 -16 -3 3 1 10 9 15 19 12 30 12 30 1z m260 -1 c0 -22 2
-26 22 -47 12 -13 18 -26 14 -30 -8 -9 -29 15 -52 60 -13 24 -13 27 1 27 8 0
15 -4 15 -10z m-24 -45 c15 -31 18 -47 11 -54 -14 -14 -27 -14 -27 -1 0 6 -11
28 -25 49 -23 38 -22 48 10 50 6 0 20 -19 31 -44z m-942 19 c3 -8 2 -12 -4 -9
-6 3 -10 10 -10 16 0 14 7 11 14 -7z m866 -3 c0 -5 -3 -11 -7 -14 -5 -2 -2 -2
5 -1 14 4 54 -55 46 -68 -3 -4 -14 -8 -24 -8 -21 0 -65 73 -55 90 8 13 35 13
35 1z m-3344 -158 c65 -81 188 -233 273 -337 l154 -189 -19 -34 c-25 -48 -152
-156 -129 -110 4 6 -3 0 -15 -15 -20 -26 -49 -40 -35 -18 12 20 -31 -3 -54
-29 -15 -17 -21 -20 -17 -8 3 9 1 17 -5 17 -6 0 -8 7 -5 16 3 9 2 12 -4 9 -6
-4 -9 -22 -8 -40 1 -19 -1 -37 -4 -41 -11 -11 -30 7 -24 23 4 9 1 13 -6 10 -7
-2 -12 -16 -10 -31 2 -17 -2 -25 -10 -24 -8 2 -12 -6 -10 -22 9 -75 7 -136 -4
-145 -7 -5 -14 -17 -16 -24 -2 -8 -16 -26 -31 -39 -27 -24 -31 -45 -5 -25 7 5
22 13 33 17 14 5 11 -2 -12 -25 -18 -17 -33 -39 -33 -49 0 -29 11 -50 26 -50
16 0 19 -16 4 -25 -18 -11 -10 -22 13 -18 21 4 22 2 22 -75 0 -44 3 -78 6 -76
9 5 29 -77 29 -119 0 -19 8 -45 18 -58 9 -13 28 -45 41 -71 13 -27 30 -48 37
-48 8 0 14 -4 14 -9 0 -5 19 -33 42 -63 39 -48 55 -69 103 -134 9 -12 18 -34
21 -48 9 -54 47 -132 98 -205 29 -42 72 -114 96 -161 67 -132 93 -173 103
-163 4 3 7 1 7 -5 0 -20 -22 -25 -32 -8 -6 11 -16 15 -29 11 -11 -4 -19 -2
-19 4 0 6 7 11 15 11 8 0 15 5 15 11 0 7 -10 9 -26 5 -15 -4 -40 -9 -58 -12
-30 -4 -30 -4 9 16 45 22 39 25 -18 9 -34 -9 -37 -12 -31 -37 4 -15 11 -30 16
-33 5 -3 8 -10 7 -15 -5 -27 2 -46 16 -40 9 3 19 -3 26 -15 12 -24 2 -41 -11
-19 -11 17 -25 7 -17 -13 3 -10 15 -13 31 -10 19 4 26 1 26 -11 0 -9 -5 -16
-11 -16 -5 0 -7 -4 -4 -10 4 -6 -1 -7 -11 -3 -12 4 -15 2 -12 -8 3 -9 15 -13
31 -11 33 4 38 -23 7 -33 -29 -9 -24 -31 7 -30 14 0 28 -5 30 -11 2 -7 -4 -11
-14 -10 -14 1 -17 -5 -16 -29 6 -64 9 -70 36 -68 14 1 28 -5 31 -13 4 -10 -2
-14 -19 -14 -28 0 -35 -27 -10 -36 8 -4 13 -9 10 -13 -2 -4 -1 -21 4 -37 6
-22 13 -28 29 -26 28 4 29 -18 2 -25 -11 -3 -17 -10 -14 -15 3 -5 -3 -4 -15 4
-15 9 -26 10 -38 2 -22 -13 -87 -12 -90 1 -2 6 3 10 10 10 6 0 16 9 20 20 9
21 -14 45 -42 45 -11 0 -9 5 7 16 30 21 19 35 -18 21 -18 -7 -25 -14 -18 -18
8 -5 1 -10 -16 -15 -20 -5 -30 -2 -41 12 -15 22 -10 33 7 16 15 -15 32 -16 23
-2 -3 5 -1 10 4 10 6 0 11 7 11 15 0 8 9 19 20 25 21 11 27 30 11 30 -5 0 -17
-7 -25 -16 -21 -20 -80 -37 -84 -24 -4 12 -42 14 -42 2 0 -4 8 -19 18 -32 9
-13 24 -45 32 -70 8 -25 18 -43 21 -40 12 9 48 -32 54 -62 7 -28 9 -29 46 -23
32 6 38 4 33 -8 -4 -12 0 -14 15 -10 12 3 21 10 21 15 0 5 5 6 12 2 15 -9 -19
-34 -47 -34 -12 0 -29 -6 -39 -13 -14 -10 -15 -17 -7 -40 12 -31 36 -27 26 4
-8 25 20 26 34 1 10 -16 12 -15 29 7 16 20 20 21 25 7 7 -17 -19 -36 -50 -36
-27 0 -59 -25 -45 -34 6 -4 20 -2 31 4 16 8 21 6 26 -9 6 -19 7 -19 27 1 15
15 23 18 26 9 6 -17 -7 -28 -40 -36 -18 -5 -28 -3 -28 4 0 6 -5 11 -10 11 -6
0 -10 -6 -8 -13 2 -7 -7 -25 -19 -40 l-21 -28 -17 23 -17 23 7 -22 c5 -19 2
-23 -14 -23 -19 0 -25 10 -35 61 -2 8 -6 22 -11 32 -4 9 -5 26 -2 37 3 14 0
20 -10 20 -12 0 -13 3 -3 15 6 8 9 19 5 25 -4 6 -1 17 5 25 17 20 8 19 -82 -9
-61 -19 -78 -21 -82 -10 -3 7 -1 16 4 19 6 4 10 1 10 -4 0 -6 4 -11 9 -11 5 0
7 8 4 19 -6 23 23 36 35 15 7 -13 15 -13 55 -3 26 6 44 15 41 20 -3 5 -10 6
-16 3 -7 -5 -9 2 -4 20 3 14 5 26 4 26 -2 0 -38 -11 -80 -24 -65 -20 -78 -22
-78 -10 0 32 53 60 62 33 5 -14 88 7 88 22 0 6 -5 7 -11 3 -9 -5 -10 1 -5 20
3 14 5 26 4 26 -2 0 -38 -11 -80 -24 -62 -19 -78 -21 -82 -10 -7 19 54 51 64
34 5 -9 18 -9 51 1 24 6 38 14 32 16 -7 3 -13 15 -13 28 l0 23 -77 -24 c-43
-13 -79 -24 -80 -24 -2 0 -3 7 -3 15 0 25 123 77 196 83 50 4 64 8 64 21 0 9
9 22 20 29 12 7 18 17 14 23 -4 7 -12 5 -23 -5 -9 -9 -35 -22 -58 -30 -36 -13
-42 -13 -57 2 -15 15 -16 15 -16 -4 0 -17 -11 -24 -62 -37 -35 -8 -71 -18 -80
-22 -29 -11 -22 20 7 35 14 8 48 13 76 13 45 -1 49 1 43 20 -6 21 2 21 49 2
13 -6 16 -3 11 9 -7 18 7 21 23 5 15 -15 33 -3 33 22 0 11 7 22 15 25 8 4 15
16 15 27 l0 21 -19 -21 c-11 -12 -50 -28 -93 -38 -40 -10 -97 -26 -127 -37
-30 -10 -58 -18 -63 -18 -15 0 -8 28 10 36 40 17 107 32 110 23 2 -5 8 -9 14
-9 6 0 8 7 4 15 -4 10 1 15 14 15 11 0 20 -5 20 -11 0 -6 6 -9 13 -6 6 2 11
11 9 21 -4 20 17 22 24 2 8 -22 34 -7 34 19 0 13 7 26 16 29 16 6 11 45 -9 57
-5 4 -6 12 -2 19 4 6 -1 20 -10 30 -9 10 -14 23 -11 29 4 6 4 22 0 36 -5 19
-11 24 -25 20 -12 -4 -22 1 -29 15 -10 19 -18 21 -78 16 -37 -2 -80 -9 -95
-15 -16 -6 -40 -11 -54 -11 -41 0 -113 -50 -111 -77 2 -14 9 -23 19 -23 9 0
19 -10 23 -22 11 -44 7 -52 -17 -26 -25 27 -62 34 -52 11 3 -10 0 -13 -13 -8
-27 8 -152 -33 -152 -50 0 -8 10 -40 22 -72 12 -32 21 -62 20 -66 -1 -5 2 -24
7 -43 6 -22 6 -34 0 -34 -6 0 -7 -9 -4 -20 5 -14 2 -20 -9 -20 -10 0 -16 -9
-16 -25 0 -14 -4 -25 -10 -25 -5 0 -7 7 -4 15 4 9 0 15 -10 15 -13 0 -14 5 -5
27 8 23 7 30 -8 41 -14 10 -15 15 -5 21 7 4 12 12 11 17 -1 5 -1 20 0 33 1 24
1 24 15 5 11 -14 18 -16 26 -8 9 9 6 17 -9 31 -13 12 -19 26 -15 36 3 10 1 17
-6 17 -6 0 -8 5 -4 11 4 7 1 10 -7 7 -15 -6 -15 -11 -4 -40 5 -13 2 -18 -8
-18 -9 0 -19 9 -22 20 -5 16 -10 18 -26 10 -13 -7 -25 -7 -38 0 -27 14 -41 13
-41 -4 0 -8 -7 -17 -16 -20 -14 -5 -15 -4 -4 9 16 20 -3 20 -23 0 -8 -8 -18
-11 -22 -7 -5 4 -5 2 -1 -5 4 -7 -2 -17 -13 -22 -28 -16 -35 -13 -20 5 12 14
11 16 -6 12 -12 -2 -19 -10 -17 -20 1 -9 -2 -19 -8 -23 -5 -3 -10 -19 -10 -35
0 -28 -33 -60 -48 -46 -3 3 0 6 6 6 7 0 12 5 12 10 0 6 -6 10 -14 10 -7 0 -21
11 -30 25 -9 14 -24 25 -32 25 -11 0 -14 6 -10 16 5 12 0 11 -22 -4 -17 -13
-37 -18 -53 -15 -31 6 -99 -21 -99 -39 1 -18 38 -156 45 -169 4 -5 15 -7 26
-4 11 4 19 2 19 -4 0 -6 -6 -11 -14 -11 -8 0 -18 -5 -21 -10 -10 -16 16 -41
36 -35 9 3 20 1 24 -4 3 -6 -6 -13 -20 -17 -34 -9 -29 -38 8 -42 30 -4 38 -22
9 -22 -29 0 -34 -11 -16 -37 8 -13 13 -30 11 -36 -2 -7 2 -29 11 -50 11 -29
12 -41 3 -50 -8 -8 -11 -7 -11 4 0 8 -11 16 -25 17 -22 2 -30 -7 -26 -31 0 -4
-4 -7 -9 -7 -6 0 -10 7 -10 16 0 15 -24 13 -59 -6 -9 -5 -25 -2 -38 7 -15 10
-23 11 -23 4 0 -24 -19 -9 -30 24 -15 46 -35 59 -27 17 5 -26 2 -34 -14 -43
-18 -9 -20 -8 -15 8 3 10 1 25 -4 33 -5 8 -10 11 -10 6 0 -6 -7 -1 -16 10 -15
19 -15 18 -11 -4 4 -15 -1 -27 -15 -36 -11 -8 -18 -18 -15 -23 8 -13 -7 -33
-19 -25 -6 4 -15 20 -21 36 -5 17 -15 32 -22 34 -10 3 -10 0 -2 -16 15 -27 14
-32 -4 -32 -14 0 -13 -3 1 -25 18 -28 13 -45 -9 -27 -13 11 -41 11 -53 -1 -12
-11 -13 -61 -2 -74 14 -17 -17 -29 -36 -14 -19 16 -28 -10 -20 -60 5 -31 4
-39 -9 -39 -21 0 -32 -19 -18 -33 14 -14 14 -30 0 -21 -8 4 -8 0 0 -15 7 -13
8 -21 2 -21 -6 0 -8 -7 -5 -15 4 -8 2 -15 -4 -15 -17 0 -33 27 -26 45 7 17 6
17 -20 0 -15 -10 -29 -15 -32 -12 -3 3 4 8 15 12 12 3 21 10 21 14 0 12 -68 5
-84 -8 -11 -9 -16 -9 -23 1 -4 7 -9 815 -11 1794 l-2 1782 122 6 c68 4 251 13
408 21 603 31 663 35 664 37 1 2 12 36 25 76 12 40 26 70 30 68 4 -3 62 -72
127 -153z m2422 122 c-3 -3 -9 2 -12 12 -6 14 -5 15 5 6 7 -7 10 -15 7 -18z
m895 -29 c14 -29 14 -35 2 -40 -17 -6 -50 48 -40 64 11 17 21 11 38 -24z
m-1696 -40 c16 -32 19 -46 10 -55 -18 -18 -26 -13 -41 22 -27 67 -29 77 -9 77
11 0 26 -17 40 -44z m677 28 c3 -8 2 -12 -4 -9 -6 3 -10 10 -10 16 0 14 7 11
14 -7z m916 -57 c0 -3 -11 -7 -24 -9 -15 -3 -27 2 -35 14 -16 26 -14 33 6 17
15 -13 15 -12 4 9 -21 39 0 46 25 8 13 -19 24 -37 24 -39z m36 56 c19 -25 17
-40 -6 -46 -15 -4 -24 2 -37 26 l-16 32 24 -20 c13 -11 18 -13 12 -5 -7 8 -13
18 -13 22 0 14 22 8 36 -9z m-202 -29 c3 -8 2 -12 -4 -9 -6 3 -10 10 -10 16 0
14 7 11 14 -7z m106 -48 c0 -4 -6 -6 -14 -3 -7 3 -18 1 -23 -4 -5 -5 -16 4
-27 24 l-17 32 19 -22 c27 -30 33 -29 28 5 l-5 27 19 -25 c11 -14 20 -29 20
-34z m398 -13 c16 -18 18 -24 7 -21 -9 2 -27 23 -41 48 -14 25 -17 34 -7 21
10 -13 28 -34 41 -48z m-567 40 c13 -16 12 -17 -3 -4 -17 13 -22 21 -14 21 2
0 10 -8 17 -17z m-656 -3 c3 -5 1 -10 -4 -10 -6 0 -11 5 -11 10 0 6 2 10 4 10
3 0 8 -4 11 -10z m1150 -12 c14 -2 20 -11 20 -30 -1 -15 3 -24 7 -22 4 3 8 0
8 -6 0 -19 -35 -6 -38 14 -2 11 -10 26 -18 34 -8 7 -14 19 -14 25 0 9 2 9 8 1
4 -7 16 -13 27 -16z m-391 -30 c-7 -11 -7 -11 -24 22 -13 25 -13 25 8 6 12
-10 19 -23 16 -28z m342 28 c24 -25 37 -68 22 -77 -16 -10 -29 3 -57 54 l-21
37 21 0 c11 0 27 -6 35 -14z m-488 -32 c-4 -3 -12 5 -18 18 -12 22 -12 22 6 6
10 -10 15 -20 12 -24z m447 -7 c31 -53 31 -57 3 -57 -28 0 -72 72 -55 89 18
18 25 13 52 -32z m-515 3 c6 -11 8 -20 6 -20 -3 0 -10 9 -16 20 -6 11 -8 20
-6 20 3 0 10 -9 16 -20z m180 -1 c0 -6 -4 -7 -10 -4 -5 3 -10 11 -10 16 0 6 5
7 10 4 6 -3 10 -11 10 -16z m-1382 -35 c19 -38 21 -49 10 -62 -11 -13 -10 -15
4 -9 14 5 23 -5 43 -43 24 -47 24 -50 7 -59 -21 -11 -42 3 -42 26 0 7 -4 21
-9 31 -67 130 -73 145 -60 153 22 14 24 12 47 -37z m537 36 c3 -5 1 -10 -4
-10 -6 0 -11 5 -11 10 0 6 2 10 4 10 3 0 8 -4 11 -10z m1123 -26 c24 -38 22
-54 -8 -54 -13 0 -27 15 -41 41 -11 23 -16 38 -10 34 6 -3 11 -1 11 4 0 23 26
9 48 -25z m-1188 6 c6 -11 8 -20 6 -20 -3 0 -10 9 -16 20 -6 11 -8 20 -6 20 3
0 10 -9 16 -20z m-65 -16 c9 -15 12 -23 6 -20 -11 7 -35 46 -28 46 3 0 12 -12
22 -26z m694 -8 c-3 -3 -11 5 -18 17 -13 21 -12 21 5 5 10 -10 16 -20 13 -22z
m221 24 c0 -5 -2 -10 -4 -10 -3 0 -8 5 -11 10 -3 6 -1 10 4 10 6 0 11 -4 11
-10z m275 -25 c15 -19 24 -39 20 -45 -7 -11 -44 -14 -46 -2 -1 4 -3 16 -4 27
-2 11 -6 28 -10 38 -12 29 12 19 40 -18z m-425 -30 c0 -11 -14 7 -31 40 -7 13
-3 12 10 -5 11 -14 21 -29 21 -35z m24 15 c-6 -6 -10 -3 -10 10 0 13 4 16 10
10 7 -7 7 -13 0 -20z m-224 -21 c15 -28 5 -23 -15 7 -9 15 -12 23 -6 20 6 -4
16 -16 21 -27z m574 6 c19 -29 20 -35 3 -35 -7 0 -18 14 -24 30 -14 36 -1 39
21 5z m-61 -23 c15 -25 16 -32 5 -32 -8 0 -22 16 -31 36 -22 45 -1 42 26 -4z
m37 -16 c0 -12 -14 5 -31 39 -8 16 -6 15 10 -4 12 -13 21 -28 21 -35z m365 -3
c27 -40 34 -71 9 -38 -20 26 -46 75 -40 75 3 0 17 -17 31 -37z m-975 7 c6 -11
8 -20 6 -20 -3 0 -10 9 -16 20 -6 11 -8 20 -6 20 3 0 10 -9 16 -20z m549 -24
c-3 -3 -11 5 -18 17 -13 21 -12 21 5 5 10 -10 16 -20 13 -22z m-174 -2 c9 -15
12 -23 6 -20 -11 7 -35 46 -28 46 3 0 12 -12 22 -26z m510 -21 c3 -13 10 -23
16 -23 6 0 7 -4 4 -10 -13 -20 -31 -9 -48 30 -21 50 -21 53 2 38 11 -7 22 -22
26 -35z m33 11 c-4 -3 -12 5 -18 18 -12 22 -12 22 6 6 10 -10 15 -20 12 -24z
m-108 16 c0 -5 0 -12 0 -15 0 -3 6 -18 15 -34 13 -26 13 -30 -1 -35 -8 -3 -13
-2 -9 3 3 5 2 11 -3 13 -4 1 -18 17 -30 35 -16 23 -19 33 -10 36 22 9 38 7 38
-3z m-924 -42 c23 -45 12 -43 -13 3 -12 21 -17 37 -12 33 5 -3 16 -19 25 -36z
m422 17 c-3 -3 -9 2 -12 12 -6 14 -5 15 5 6 7 -7 10 -15 7 -18z m217 15 c3 -5
1 -10 -4 -10 -6 0 -11 5 -11 10 0 6 2 10 4 10 3 0 8 -4 11 -10z m249 -42 c19
-31 22 -44 13 -50 -21 -13 -32 -9 -48 20 -13 24 -15 35 -10 65 3 18 22 3 45
-35z m-963 10 c11 -21 11 -22 -4 -9 -10 7 -17 17 -17 22 0 15 9 10 21 -13z
m654 12 c3 -5 1 -10 -4 -10 -6 0 -11 5 -11 10 0 6 2 10 4 10 3 0 8 -4 11 -10z
m-2544 -17 c13 -16 12 -17 -3 -4 -10 7 -18 15 -18 17 0 8 8 3 21 -13z m2767
12 c-3 -3 8 -20 23 -36 16 -17 29 -35 29 -40 0 -17 -29 -9 -40 12 -7 11 -14
18 -17 15 -3 -3 0 -12 7 -21 7 -9 10 -18 7 -21 -3 -3 -13 9 -22 26 -11 21 -12
29 -4 24 9 -5 10 -2 6 10 -7 18 -2 36 10 36 4 0 4 -2 1 -5z m268 -8 c4 -4 0
-7 -9 -7 -9 0 -18 4 -21 9 -7 10 20 9 30 -2z m-618 -32 c-3 -3 -9 2 -12 12 -6
14 -5 15 5 6 7 -7 10 -15 7 -18z m-2369 -39 c-2 -2 -13 8 -23 22 l-19 27 24
-22 c12 -12 21 -24 18 -27z m1811 -10 c0 -12 -14 5 -31 39 -8 16 -6 15 10 -4
12 -13 21 -28 21 -35z m300 23 c15 -28 5 -23 -15 7 -9 15 -12 23 -6 20 6 -4
16 -16 21 -27z m-1665 2 c-10 -9 -123 -26 -114 -17 6 7 77 24 104 25 11 1 15
-3 10 -8z m790 -40 c25 -49 25 -50 4 -56 -11 -4 -22 -5 -23 -3 -25 33 -47 82
-42 93 11 29 36 14 61 -34z m485 25 c-8 -7 -35 -21 -60 -31 -25 -9 -51 -19
-57 -22 -7 -3 -13 -1 -13 4 0 11 70 46 77 39 3 -3 12 1 20 9 8 8 22 15 31 15
14 0 14 -2 2 -14z m980 -7 c0 -5 -4 -9 -8 -9 -5 0 -9 7 -9 15 0 8 4 12 9 9 4
-3 8 -9 8 -15z m-40 -9 c6 -11 8 -20 6 -20 -3 0 -10 9 -16 20 -6 11 -8 20 -6
20 3 0 10 -9 16 -20z m379 4 c-14 -17 -25 -18 -32 -1 -3 7 5 13 20 13 19 2 22
-1 12 -12z m-2504 -12 c-7 -7 25 -42 39 -42 6 1 2 8 -10 18 -23 20 -21 42 5
42 33 0 52 -34 49 -84 -3 -49 -17 -61 -30 -26 -5 13 -4 19 2 15 6 -3 10 -1 10
4 0 6 -6 11 -13 11 -15 0 -127 59 -127 66 0 3 3 3 8 1 4 -3 16 -1 27 3 21 7
50 2 40 -8z m1201 -18 c-25 -18 -36 -18 -36 1 0 8 7 15 15 15 8 0 15 5 15 12
0 9 3 9 13 -1 10 -10 8 -15 -7 -27z m1251 17 c10 -15 9 -22 -1 -30 -10 -9 -17
-6 -29 13 -12 18 -13 26 -4 29 20 9 22 8 34 -12z m-379 -27 c-4 -3 -12 5 -18
18 -12 22 -12 22 6 6 10 -10 15 -20 12 -24z m-2129 -5 c39 -20 71 -49 56 -49
-11 0 -135 61 -135 66 0 11 44 2 79 -17z m1201 -9 c-22 -14 -30 -12 -30 8 0
14 2 15 10 2 9 -14 15 -7 10 15 -1 6 4 4 12 -3 11 -11 10 -14 -2 -22z m1204
-11 c30 -45 30 -46 1 -51 -15 -2 -19 2 -17 16 2 10 -1 16 -5 13 -5 -3 -18 8
-28 25 -10 17 -13 28 -7 24 6 -3 13 -2 17 4 9 15 10 14 39 -31z m-59 -9 c30
-48 31 -56 5 -63 -25 -6 -74 70 -58 91 17 19 26 15 53 -28z m116 8 c20 -38 -7
-42 -29 -5 -19 34 -19 34 -1 30 11 -3 24 -14 30 -25z m-1307 7 c3 -9 -1 -18
-10 -22 -19 -7 -28 2 -21 22 8 19 23 19 31 0z m616 -15 c6 -11 8 -20 6 -20 -3
0 -10 9 -16 20 -6 11 -8 20 -6 20 3 0 10 -9 16 -20z m528 -35 l20 -33 -23 -10
c-23 -11 -35 -7 -35 10 0 5 5 6 12 2 7 -4 2 9 -10 30 -12 21 -20 42 -16 47 8
13 28 -4 52 -46z m-2708 30 c0 -8 -4 -15 -10 -15 -5 0 -7 7 -4 15 4 8 8 15 10
15 2 0 4 -7 4 -15z m1878 -20 c-3 -3 -9 2 -12 12 -6 14 -5 15 5 6 7 -7 10 -15
7 -18z m252 -16 c15 -28 5 -23 -15 7 -9 15 -12 23 -6 20 6 -4 16 -16 21 -27z
m-310 -14 c0 -5 -5 -3 -10 5 -5 8 -10 20 -10 25 0 6 5 3 10 -5 5 -8 10 -19 10
-25z m245 -6 c21 -32 24 -44 14 -53 -9 -8 -10 -8 -5 2 4 6 -1 24 -12 40 -26
37 -34 52 -29 52 2 0 17 -19 32 -41z m-1240 1 c31 -32 30 -34 -39 -45 -29 -5
-37 -3 -34 7 3 7 12 13 21 13 8 0 19 3 22 7 4 4 14 4 23 0 15 -5 15 -4 3 11
-18 23 -53 21 -101 -3 -46 -23 -57 -25 -38 -6 21 21 71 45 94 46 11 0 33 -13
49 -30z m1807 13 c1 -4 8 -13 17 -20 9 -6 12 -15 8 -20 -10 -9 -48 38 -40 50
5 9 14 4 15 -10z m36 -8 c-3 -3 -9 2 -12 12 -6 14 -5 15 5 6 7 -7 10 -15 7
-18z m-58 -16 c12 -16 20 -32 17 -35 -2 -3 -14 11 -25 31 -26 43 -21 46 8 4z
m-10 -31 c0 -5 -5 -8 -11 -8 -5 0 -8 4 -4 9 3 5 1 12 -5 16 -5 3 -10 11 -10
18 0 12 29 -23 30 -35z m-910 12 c6 -11 8 -20 6 -20 -3 0 -10 9 -16 20 -6 11
-8 20 -6 20 3 0 10 -9 16 -20z m874 -29 c-5 -5 -33 30 -34 43 0 4 9 -2 19 -15
11 -13 17 -26 15 -28z m-624 8 c15 -28 5 -23 -15 7 -9 15 -12 23 -6 20 6 -4
16 -16 21 -27z m90 -24 c0 -11 -14 7 -31 40 -7 13 -3 12 10 -5 11 -14 21 -29
21 -35z m713 10 c22 0 71 -71 61 -87 -13 -20 -37 -3 -75 55 -24 34 -35 55 -25
47 10 -8 28 -14 39 -15z m-245 -10 c-3 -3 -9 2 -12 12 -6 14 -5 15 5 6 7 -7
10 -15 7 -18z m-688 9 c0 -8 -19 -13 -24 -6 -3 5 1 9 9 9 8 0 15 -2 15 -3z
m85 -35 c9 -16 12 -29 8 -29 -5 0 -16 16 -26 36 -9 19 -13 33 -7 29 6 -3 17
-19 25 -36z m-1028 25 c-3 -3 -12 -4 -19 -1 -8 3 -5 6 6 6 11 1 17 -2 13 -5z
m1857 -35 c26 -39 29 -78 5 -63 -7 4 -10 1 -7 -7 3 -8 10 -13 16 -12 5 1 9 -5
8 -14 -1 -12 7 -17 23 -18 14 0 25 -7 26 -16 2 -10 13 -27 25 -39 25 -25 19
-40 -7 -19 -15 13 -16 12 -10 -6 6 -16 3 -15 -13 5 -21 26 -27 21 -10 -10 8
-15 5 -19 -15 -22 -25 -5 -27 -4 -72 70 l-17 27 24 -20 c14 -11 19 -13 13 -5
-17 19 -16 30 2 30 8 0 22 -11 31 -25 9 -14 19 -23 22 -20 3 2 11 0 19 -6 9
-8 13 -8 13 -1 0 6 -5 14 -11 17 -6 4 -8 13 -6 19 3 7 -1 13 -9 13 -8 0 -13
-6 -10 -14 9 -23 -1 -14 -27 26 -19 29 -31 38 -45 34 -14 -3 -25 5 -42 31 -32
52 -19 69 15 18 31 -47 40 -53 29 -20 -6 21 -5 22 11 8 12 -10 10 -2 -8 25
-20 29 -23 41 -14 47 6 4 13 8 13 8 1 0 14 -18 28 -41z m-899 22 c4 -8 -20
-22 -45 -26 -3 0 -15 -6 -27 -13 -14 -8 -24 -9 -28 -2 -3 6 2 13 12 16 10 3
29 12 43 19 30 17 37 18 45 6z m325 -42 c15 -28 5 -23 -15 7 -9 15 -12 23 -6
20 6 -4 16 -16 21 -27z m75 5 c9 -15 12 -23 6 -20 -11 7 -35 46 -28 46 3 0 12
-12 22 -26z m463 -10 c-4 -3 -12 5 -18 18 -12 22 -12 22 6 6 10 -10 15 -20 12
-24z m-996 6 c14 0 18 -5 14 -16 -3 -8 -2 -13 3 -10 15 10 19 -33 4 -45 -12
-10 -16 -10 -24 2 -5 8 -7 19 -5 24 2 6 -2 19 -10 30 -8 10 -14 24 -13 29 0 6
3 5 6 -1 2 -7 14 -13 25 -13z m127 -8 c-11 -18 -39 -20 -39 -2 0 7 43 30 48
25 2 -2 -2 -12 -9 -23z m-819 -3 c0 -14 -16 -11 -29 5 -10 12 -8 13 8 9 12 -3
21 -9 21 -14z m780 -23 c0 -5 -6 -3 -13 3 -8 6 -18 7 -23 3 -4 -4 -2 1 5 11
11 14 16 15 22 5 5 -7 9 -17 9 -22z m850 -40 c0 -16 -17 -2 -32 25 -27 46 -21
59 7 17 14 -20 25 -39 25 -42z m-1565 41 c7 -7 4 -8 -8 -3 -10 3 -25 6 -33 6
-8 0 -14 5 -14 11 0 12 40 2 55 -14z m1575 -7 c12 -16 18 -30 13 -30 -4 0 -16
14 -25 30 -22 39 -15 39 12 0z m-50 -43 c0 -12 0 -11 -24 28 l-17 30 20 -24
c12 -13 21 -28 21 -34z m-231 -1 c-3 -3 -11 5 -18 17 -13 21 -12 21 5 5 10
-10 16 -20 13 -22z m-684 15 c3 -5 1 -12 -5 -16 -5 -3 -10 1 -10 9 0 18 6 21
15 7z m373 -26 c-3 -3 -9 2 -12 12 -6 14 -5 15 5 6 7 -7 10 -15 7 -18z m481
-9 c-3 -3 -11 5 -18 17 -13 21 -12 21 5 5 10 -10 16 -20 13 -22z m366 24 c3
-5 1 -10 -4 -10 -6 0 -11 5 -11 10 0 6 2 10 4 10 3 0 8 -4 11 -10z m-601 -16
c5 -14 4 -15 -9 -4 -17 14 -19 20 -6 20 5 0 12 -7 15 -16z m572 -1 c7 -10 14
-26 14 -35 0 -10 5 -18 11 -18 5 0 7 -4 4 -10 -3 -5 -9 -10 -13 -10 -7 0 -52
74 -52 84 0 13 24 5 36 -11z m-645 -10 c13 -16 12 -17 -3 -4 -10 7 -18 15 -18
17 0 8 8 3 21 -13z m-361 -57 c0 -6 -7 -1 -15 10 -8 10 -15 23 -15 28 0 6 7 1
15 -10 8 -10 15 -23 15 -28z m260 -27 c42 -70 29 -61 -21 14 -24 34 -35 56
-26 48 9 -7 30 -35 47 -62z m60 26 c17 -25 29 -45 26 -45 -3 0 -19 20 -36 45
-17 25 -29 45 -26 45 3 0 19 -20 36 -45z m518 1 c21 -29 28 -47 21 -51 -13 -8
-18 -3 -47 46 -12 20 -19 39 -15 42 9 9 6 12 41 -37z m222 33 c0 -6 9 -8 21
-4 15 5 19 4 15 -4 -10 -16 -31 -14 -46 4 -9 10 -9 15 -1 15 6 0 11 -5 11 -11z
m-650 -54 c0 -11 -14 7 -31 40 -7 13 -3 12 10 -5 11 -14 21 -29 21 -35z
m-1064 37 c6 -4 21 -27 32 -52 12 -25 21 -37 22 -27 0 10 -5 28 -11 40 -10 20
-10 20 4 7 16 -17 36 -67 47 -123 8 -41 -4 -61 -14 -22 -4 14 -35 58 -71 99
-36 41 -65 77 -65 80 0 9 43 7 56 -2z m1427 -34 c19 -27 25 -44 19 -50 -7 -7
-19 7 -36 41 -31 61 -22 66 17 9z m27 2 c18 -23 30 -43 27 -46 -3 -3 -19 15
-36 40 -38 57 -33 59 9 6z m-89 13 c13 -16 12 -17 -3 -4 -17 13 -22 21 -14 21
2 0 10 -8 17 -17z m-521 -39 c18 -25 30 -47 28 -49 -1 -2 -18 19 -36 46 -41
62 -34 65 8 3z m508 11 c-3 -3 -9 2 -12 12 -6 14 -5 15 5 6 7 -7 10 -15 7 -18z
m-568 -40 c17 -25 27 -45 22 -45 -5 0 -14 10 -20 23 -7 12 -19 32 -28 45 -9
12 -14 22 -11 22 3 0 20 -20 37 -45z m454 29 c3 -8 2 -12 -4 -9 -6 3 -10 10
-10 16 0 14 7 11 14 -7z m-836 -13 c3 -8 -1 -12 -9 -9 -7 2 -15 10 -17 17 -3
8 1 12 9 9 7 -2 15 -10 17 -17z m1002 -1 c6 -11 8 -20 6 -20 -3 0 -10 9 -16
20 -6 11 -8 20 -6 20 3 0 10 -9 16 -20z m-220 -21 c15 -28 5 -23 -15 7 -9 15
-12 23 -6 20 6 -4 16 -16 21 -27z m204 -8 c-7 -7 -34 21 -28 31 3 5 12 1 19
-9 7 -10 12 -20 9 -22z m-668 -11 c15 -22 25 -42 23 -45 -3 -2 -17 16 -32 40
-33 56 -27 59 9 5z m394 10 c6 -11 8 -20 6 -20 -3 0 -10 9 -16 20 -6 11 -8 20
-6 20 3 0 10 -9 16 -20z m-445 -52 c9 -16 15 -28 13 -28 -8 0 -58 75 -58 85 0
9 10 -3 45 -57z m683 37 c-3 -3 -9 2 -12 12 -6 14 -5 15 5 6 7 -7 10 -15 7
-18z m-282 -37 c37 -58 25 -55 -14 4 -19 28 -29 47 -22 43 6 -4 22 -25 36 -47z
m498 0 c-4 -6 -3 -8 4 -4 12 7 21 -4 27 -34 2 -11 0 -20 -6 -20 -9 0 -13 14
-10 39 2 7 -2 10 -7 7 -6 -3 -20 6 -31 21 -11 16 -21 23 -21 17 0 -5 11 -25
25 -44 14 -19 25 -39 25 -44 0 -6 -15 12 -34 39 -33 49 -33 50 -13 62 18 9 24
8 35 -8 7 -10 10 -24 6 -31z m-276 17 c-3 -3 -9 2 -12 12 -6 14 -5 15 5 6 7
-7 10 -15 7 -18z m300 0 c-3 -3 -9 2 -12 12 -6 14 -5 15 5 6 7 -7 10 -15 7
-18z m-688 -10 c14 -19 14 -19 -2 -6 -10 7 -18 18 -18 24 0 6 1 8 3 6 1 -2 9
-13 17 -24z m100 -30 c17 -25 29 -45 26 -45 -3 0 -19 20 -36 45 -17 25 -29 45
-26 45 3 0 19 -20 36 -45z m190 30 c7 -9 8 -15 2 -15 -5 0 -12 7 -16 15 -3 8
-4 15 -2 15 2 0 9 -7 16 -15z m261 -2 c13 -16 12 -17 -3 -4 -17 13 -22 21 -14
21 2 0 10 -8 17 -17z m68 -25 c30 -40 32 -64 6 -54 -8 3 -15 1 -17 -4 -2 -5
-13 7 -26 28 l-23 37 25 -30 c31 -36 34 -23 6 20 -40 60 -15 63 29 3z m-559 1
c0 -5 -4 -8 -9 -4 -5 3 -12 1 -16 -5 -4 -6 -11 -7 -18 -3 -7 4 -4 9 9 14 27
11 34 10 34 -2z m669 -23 c-3 -3 -11 5 -18 17 -13 21 -12 21 5 5 10 -10 16
-20 13 -22z m-759 -22 c18 -25 30 -47 28 -50 -3 -2 -19 18 -36 46 -39 63 -34
65 8 4z m470 6 c12 -16 19 -30 16 -30 -2 0 -14 14 -26 30 -12 17 -19 30 -16
30 2 0 14 -13 26 -30z m-536 -30 c20 -27 33 -50 28 -50 -7 0 -76 100 -68 100
2 0 20 -22 40 -50z m-728 -17 c-6 -15 -9 -14 -20 7 -9 18 -10 29 -2 39 8 11
12 9 19 -7 5 -12 7 -29 3 -39z m882 21 c-4 -3 -12 5 -18 18 -12 22 -12 22 6 6
10 -10 15 -20 12 -24z m335 -16 c15 -20 27 -40 27 -44 0 -9 -47 52 -62 81 -13
25 0 11 35 -37z m185 11 c-7 -4 -16 -3 -20 4 -11 18 2 29 18 16 12 -10 12 -14
2 -20z m-748 -10 c15 -28 5 -23 -15 7 -9 15 -12 23 -6 20 6 -4 16 -16 21 -27z
m442 -57 c14 -23 15 -29 3 -29 -8 0 -12 4 -9 9 3 5 -11 32 -31 61 -26 37 -28
43 -8 20 15 -17 36 -45 45 -61z m62 26 c22 -39 11 -29 -29 27 -17 23 -21 33
-9 23 10 -9 28 -32 38 -50z m520 16 c3 -8 2 -12 -4 -9 -6 3 -10 10 -10 16 0
14 7 11 14 -7z m-654 -50 c17 -24 27 -44 23 -44 -7 0 -34 36 -67 89 -21 34 16
-4 44 -45z m-571 9 c8 -16 8 -24 -1 -29 -6 -4 -8 -3 -4 4 3 6 2 13 -4 17 -5 3
-10 13 -10 22 0 19 3 17 19 -14z m232 10 c13 -16 12 -17 -3 -4 -17 13 -22 21
-14 21 2 0 10 -8 17 -17z m216 -71 c9 -12 14 -25 11 -27 -2 -3 -23 23 -46 58
-33 49 -36 55 -11 27 17 -19 38 -45 46 -58z m67 16 c14 -23 15 -29 4 -21 -8 7
-19 9 -23 5 -5 -4 -5 -1 -1 6 4 7 -3 27 -15 45 -19 27 -20 29 -3 15 10 -9 28
-32 38 -50z m-1187 21 c35 -20 62 -46 63 -60 0 -4 -25 -10 -56 -14 -48 -6 -59
-4 -73 12 -9 10 -9 12 -1 5 24 -20 33 -14 17 12 -15 23 -15 24 5 29 14 4 27 0
35 -11 13 -15 13 -14 3 6 -7 14 -20 22 -36 22 -14 0 -22 4 -19 10 9 14 20 13
62 -11z m1059 -71 c25 -47 9 -31 -30 30 -25 38 -29 47 -11 27 14 -16 33 -42
41 -57z m449 46 c9 -15 12 -23 6 -20 -11 7 -35 46 -28 46 3 0 12 -12 22 -26z
m-537 -38 c18 -24 32 -48 32 -52 0 -8 -45 50 -61 79 -17 31 -3 18 29 -27z
m-1061 18 c-3 -3 -12 -4 -19 -1 -8 3 -5 6 6 6 11 1 17 -2 13 -5z m243 -67 c6
-11 9 -21 7 -23 -6 -6 -67 55 -67 67 0 13 45 -21 60 -44z m1080 23 c12 -16 19
-30 16 -30 -2 0 -14 14 -26 30 -12 17 -19 30 -16 30 2 0 14 -13 26 -30z m71
13 c13 -16 12 -17 -3 -4 -17 13 -22 21 -14 21 2 0 10 -8 17 -17z m100 -25 c15
-28 5 -21 -21 15 -15 20 -17 27 -6 18 9 -8 22 -23 27 -33z m-281 -64 c43 -61
30 -56 -15 7 -20 28 -32 48 -26 45 6 -4 25 -27 41 -52z m584 40 c3 -9 6 -25 6
-37 -1 -17 -2 -19 -9 -7 -16 27 -22 60 -13 60 6 0 13 -7 16 -16z m-491 -53
c27 -46 15 -37 -23 17 -19 26 -25 39 -14 30 10 -9 27 -30 37 -47z m457 28 c15
-28 5 -23 -15 7 -9 15 -12 23 -6 20 6 -4 16 -16 21 -27z m-390 -9 c12 -16 19
-30 16 -30 -2 0 -14 14 -26 30 -12 17 -19 30 -16 30 2 0 14 -13 26 -30z m79
-4 c-3 -3 -11 5 -18 17 -13 21 -12 21 5 5 10 -10 16 -20 13 -22z m261 -24 c13
-21 15 -31 7 -23 -8 6 -17 8 -19 4 -3 -4 -3 -2 -1 5 2 8 -7 28 -19 45 -14 21
-16 27 -6 19 9 -8 27 -30 38 -50z m-57 -32 c10 -16 16 -30 14 -30 -5 0 -56 73
-70 100 -14 25 37 -38 56 -70z m-518 44 c9 -15 12 -23 6 -20 -11 7 -35 46 -28
46 3 0 12 -12 22 -26z m-1030 -4 c10 -11 13 -20 7 -20 -6 0 -14 5 -17 10 -4 6
-10 8 -14 5 -5 -2 -17 2 -27 10 -18 14 -18 14 7 15 14 0 34 -9 44 -20z m196
-98 c37 -59 82 -138 102 -177 62 -126 111 -285 87 -285 -6 0 -2 -10 10 -22 24
-26 26 -44 4 -52 -21 -8 -51 8 -34 19 7 4 16 2 21 -6 7 -11 9 -11 9 -1 0 7
-14 21 -30 30 -26 15 -43 39 -45 64 0 4 -9 14 -20 22 -11 9 -15 16 -8 16 6 0
9 9 6 20 -3 11 -10 17 -16 13 -6 -4 -8 3 -3 21 4 16 2 26 -4 26 -6 0 -8 -4 -5
-10 3 -5 1 -10 -5 -10 -7 0 -9 8 -5 20 4 13 -4 30 -27 55 -33 37 -63 94 -53
103 3 3 0 11 -6 19 -9 10 -8 13 5 13 10 0 14 5 11 10 -4 6 -11 8 -16 5 -12 -8
-12 12 1 36 8 15 8 19 -2 17 -7 -2 -13 6 -13 17 0 27 -41 91 -47 73 -3 -7 -8
2 -12 19 -8 35 -2 53 17 53 7 0 42 -49 78 -108z m1305 13 c23 -42 5 -21 -40
45 -31 44 -32 48 -8 20 17 -19 38 -48 48 -65z m284 80 c7 -9 8 -15 2 -15 -5 0
-12 7 -16 15 -3 8 -4 15 -2 15 2 0 9 -7 16 -15z m-1554 -42 l-15 -28 -1 26 c0
14 6 31 12 37 19 19 21 -3 4 -35z m1439 21 c9 -15 12 -23 6 -20 -11 7 -35 46
-28 46 3 0 12 -12 22 -26z m-364 -11 c13 -16 12 -17 -3 -4 -17 13 -22 21 -14
21 2 0 10 -8 17 -17z m80 0 c13 -16 12 -17 -3 -4 -17 13 -22 21 -14 21 2 0 10
-8 17 -17z m404 -13 c3 -5 1 -10 -4 -10 -6 0 -11 5 -11 10 0 6 2 10 4 10 3 0
8 -4 11 -10z m-1727 -46 c19 -54 31 -134 21 -134 -5 0 -9 10 -9 23 0 27 -28
117 -41 132 -13 14 -11 27 4 23 6 -3 18 -22 25 -44z m1213 -10 c22 -30 39 -57
37 -60 -2 -2 -23 23 -47 56 -53 76 -46 79 10 4z m471 29 c-5 -25 -6 -25 -18
-8 -11 15 -11 20 -1 27 20 13 24 9 19 -19z m-371 -55 c20 -37 -1 -16 -31 30
-27 40 -27 42 -5 17 14 -16 30 -38 36 -47z m69 8 c0 -11 0 -11 -29 34 l-23 35
26 -30 c14 -16 26 -34 26 -39z m-240 -2 c43 -61 30 -56 -15 7 -20 28 -32 48
-26 45 6 -4 25 -27 41 -52z m520 5 c0 -47 -12 -50 -41 -12 -16 21 -29 42 -29
47 0 5 10 -4 22 -20 33 -44 42 -52 33 -29 -4 11 -9 31 -10 45 -3 24 -3 24 11
6 8 -11 14 -28 14 -37z m-1585 -67 c-5 -5 -25 69 -24 88 0 8 7 -7 14 -35 8
-27 12 -51 10 -53z m135 43 c22 -30 40 -59 40 -66 0 -13 -21 14 -63 79 -38 59
-25 52 23 -13z m873 -14 c42 -61 49 -68 67 -66 8 1 9 0 3 -2 -7 -3 -13 -8 -13
-13 0 -13 26 -30 35 -22 5 4 5 1 1 -6 -4 -7 5 -27 23 -49 30 -37 28 -52 -8
-53 -11 0 -11 3 -1 15 10 13 10 19 -2 33 -33 38 -170 236 -154 223 10 -8 32
-35 49 -60z m492 -1 c45 -67 57 -72 25 -10 -12 23 -19 47 -17 53 3 7 8 5 12
-6 4 -11 21 -33 37 -50 32 -36 32 -52 -2 -52 -16 0 -35 17 -67 63 -25 34 -41
62 -36 62 4 0 26 -27 48 -60z m206 -3 c7 -13 6 -19 -7 -24 -17 -6 -46 6 -45
20 1 4 1 22 1 40 l0 32 21 -25 c11 -14 24 -33 30 -43z m-291 43 c-8 -5 -19
-10 -25 -10 -5 0 -3 5 5 10 8 5 20 10 25 10 6 0 3 -5 -5 -10z m66 -52 c16 -24
32 -48 37 -55 5 -8 -3 -15 -25 -21 -18 -6 -40 -13 -49 -16 -16 -7 -28 14 -34
58 -2 15 5 11 26 -15 41 -49 36 -26 -7 32 -20 27 -31 49 -26 49 5 0 23 -23 41
-51 17 -28 34 -49 38 -46 3 4 1 12 -5 19 -16 21 -42 88 -33 88 5 0 21 -19 37
-42z m-96 -50 c37 -60 31 -62 -11 -3 -18 25 -35 43 -37 40 -3 -3 9 -25 26 -49
26 -35 29 -45 17 -50 -13 -5 -18 5 -14 30 0 4 -3 10 -8 13 -10 7 -43 58 -43
66 0 4 5 3 10 0 14 -9 12 8 -2 25 -7 8 -3 6 10 -5 12 -10 36 -40 52 -67z m16
45 c-7 -7 -26 7 -26 19 0 6 6 6 15 -2 9 -7 13 -15 11 -17z m254 -25 c0 -5 -8
-8 -18 -8 -15 0 -18 6 -14 31 l5 32 13 -24 c7 -13 13 -27 14 -31z m-349 -22
c43 -59 45 -64 28 -75 -21 -13 -40 -15 -37 -3 1 4 -6 25 -15 46 -10 22 -15 41
-12 44 3 3 -2 16 -10 29 -33 50 3 18 46 -41z m-1524 48 c-3 -3 -12 -4 -19 -1
-8 3 -5 6 6 6 11 1 17 -2 13 -5z m1427 -16 c-4 -5 2 -19 13 -31 49 -57 66 -89
52 -98 -22 -14 -39 -10 -39 9 0 10 -8 29 -17 42 -16 24 -16 24 0 11 24 -19 21
-5 -8 33 -29 38 -30 43 -10 43 8 0 12 -4 9 -9z m-64 -18 c-10 -7 -11 -13 -5
-17 19 -14 87 -113 78 -113 -5 0 -15 6 -22 13 -10 10 -11 9 -6 -5 5 -13 2 -18
-9 -18 -14 0 -15 4 -6 20 9 17 5 29 -24 69 -20 27 -36 50 -36 53 0 2 10 5 22
5 18 2 20 0 8 -7z m288 -236 c-4 -3 -12 5 -18 18 -12 22 -12 22 6 6 10 -10 15
-20 12 -24z m-1323 -44 c3 -5 1 -10 -4 -10 -6 0 -11 5 -11 10 0 6 2 10 4 10 3
0 8 -4 11 -10z m1171 -35 c-23 -17 -36 -19 -36 -6 0 11 18 19 40 20 11 0 10
-3 -4 -14z m-2729 -45 c10 -26 10 -51 1 -42 -5 5 -11 26 -13 48 -5 36 -3 35
12 -6z m2677 32 c3 -4 -8 -13 -25 -19 -33 -13 -38 -7 -11 13 20 16 29 17 36 6z
m-1609 -33 c11 -16 2 -17 -25 -2 -24 12 -24 13 -3 13 12 0 25 -5 28 -11z m660
-99 c-3 -5 -1 -11 5 -15 5 -3 10 -13 10 -22 0 -24 -27 2 -32 31 -4 17 -1 23 9
19 7 -3 11 -9 8 -13z m1059 -164 l31 -33 -31 0 c-29 -1 -33 4 -63 71 -39 90
-39 102 1 42 17 -26 45 -62 62 -80z m-116 89 c6 -14 10 -25 8 -25 -2 0 -11 11
-20 25 -9 14 -13 25 -8 25 5 0 14 -11 20 -25z m-928 -5 c0 -5 -2 -10 -4 -10
-3 0 -8 5 -11 10 -3 6 -1 10 4 10 6 0 11 -4 11 -10z m673 -155 c16 -25 33 -43
38 -39 5 3 6 -2 3 -10 -4 -12 0 -16 17 -17 15 0 -6 -12 -50 -29 -41 -16 -75
-29 -76 -27 -1 1 -16 27 -33 58 l-32 56 48 26 c26 15 49 27 52 27 3 0 18 -20
33 -45z m707 5 c8 -15 8 -21 -2 -25 -7 -2 -25 -9 -40 -14 -23 -9 -29 -7 -39
10 -12 24 -12 25 21 38 37 15 48 13 60 -9z m-520 -26 c0 -8 -10 -14 -25 -14
-29 0 -35 26 -7 33 22 5 32 -1 32 -19z m274 -20 c3 -8 2 -12 -4 -9 -6 3 -10
10 -10 16 0 14 7 11 14 -7z m-660 -46 c3 -18 7 -42 9 -53 8 -44 19 -65 35 -65
15 0 15 -2 2 -10 -24 -15 -49 -12 -49 8 1 28 -10 89 -20 115 -9 24 -6 37 10
37 3 0 9 -15 13 -32z m-204 -7 c-6 -12 -8 -26 -5 -31 7 -11 -49 -42 -59 -33
-12 12 15 31 37 26 17 -4 19 -2 8 5 -12 9 -12 14 3 37 20 31 33 27 16 -4z
m150 -37 c24 -54 25 -64 6 -64 -7 0 -19 -7 -26 -15 -16 -20 -23 -12 -49 47
l-20 48 27 14 c39 22 41 21 62 -30z m386 -112 c-8 -7 -7 -8 -50 60 -52 83 -44
95 10 15 25 -38 43 -71 40 -75z m-87 64 c18 -30 38 -57 44 -60 7 -2 8 -5 2 -5
-5 0 -15 3 -21 7 -15 11 -75 112 -66 112 4 0 23 -25 41 -54z m138 -56 c2 -2
40 -5 85 -7 60 -3 91 1 116 13 29 13 36 14 43 3 6 -10 2 -16 -14 -20 -33 -9
-273 -9 -258 0 10 6 5 20 -18 58 -43 70 -39 80 5 13 21 -30 39 -57 41 -60z
m348 50 c3 -11 13 -27 21 -35 14 -13 9 -15 -39 -15 -43 0 -56 4 -62 17 -3 10
-3 19 2 20 4 2 19 10 33 17 34 19 38 19 45 -4z m-305 -22 c0 -18 -2 -20 -9 -8
-6 8 -7 18 -5 22 9 14 14 9 14 -14z m27 -10 c-3 -7 -5 -2 -5 12 0 14 2 19 5
13 2 -7 2 -19 0 -25z m-484 5 c-7 -2 -19 -2 -25 0 -7 3 -2 5 12 5 14 0 19 -2
13 -5z m144 1 c-3 -3 -12 -4 -19 -1 -8 3 -5 6 6 6 11 1 17 -2 13 -5z m730 -10
c-3 -3 -12 -4 -19 -1 -8 3 -5 6 6 6 11 1 17 -2 13 -5z m-1052 -34 c3 -5 1 -10
-4 -10 -6 0 -11 5 -11 10 0 6 2 10 4 10 3 0 8 -4 11 -10z m-2061 -94 c-4 -10
2 -12 20 -9 45 9 28 -14 -26 -34 -29 -11 -54 -26 -56 -33 -3 -7 0 -10 7 -6 6
4 11 2 11 -3 0 -6 -5 -11 -12 -11 -8 0 -9 -3 -2 -10 17 -17 46 -1 39 21 -4 11
-2 19 4 19 6 0 11 -7 11 -15 0 -8 6 -15 14 -15 9 0 12 9 9 28 -3 26 -3 26 8 5
7 -13 20 -23 31 -23 10 0 18 -4 18 -9 0 -5 -39 -19 -87 -30 -49 -12 -115 -30
-148 -40 -33 -10 -64 -17 -69 -14 -13 8 13 21 87 44 54 16 67 24 63 37 -2 9
-7 39 -11 65 -5 40 -9 47 -23 42 -9 -4 -45 -13 -79 -20 -34 -7 -76 -23 -93
-35 -16 -12 -30 -16 -30 -11 0 20 61 49 134 65 126 27 192 24 180 -8z m247 1
c-4 -4 -16 -5 -26 -1 -17 7 -17 8 1 21 14 10 19 10 25 1 5 -7 5 -16 0 -21z
m-30 -40 c-13 -13 -26 -3 -16 12 3 6 11 8 17 5 6 -4 6 -10 -1 -17z m135 -11
c16 5 16 4 4 -5 -22 -16 -40 -13 -40 7 0 12 2 14 8 4 5 -7 17 -10 28 -6z m44
-51 c0 -4 -55 -35 -63 -35 -3 0 -8 7 -11 16 -4 11 -1 14 12 10 9 -3 24 -1 32
4 16 10 30 13 30 5z m-632 -50 c-3 -3 -9 2 -12 12 -6 14 -5 15 5 6 7 -7 10
-15 7 -18z m312 15 c0 -5 -7 -10 -16 -10 -8 0 -12 5 -9 10 3 6 10 10 16 10 5
0 9 -4 9 -10z m-480 -20 c0 -12 -27 -26 -70 -35 -31 -7 -33 -6 -21 9 7 9 24
16 37 16 12 0 26 5 29 10 8 13 25 13 25 0z m432 -10 c2 -7 15 -7 37 0 19 5 30
6 25 1 -5 -5 -47 -19 -94 -30 -47 -11 -111 -29 -142 -40 -56 -19 -58 -19 -58
-2 0 22 21 33 74 37 21 2 53 13 70 24 33 21 82 27 88 10z m363 -15 c-34 -15
-52 -19 -57 -12 -4 6 -4 15 -1 20 3 5 8 5 12 -1 4 -7 15 -6 31 3 14 8 34 14
45 14 12 0 0 -10 -30 -24z m-688 -37 c-3 -8 -6 -5 -6 6 -1 11 2 17 5 13 3 -3
4 -12 1 -19z m733 12 c0 -5 7 -7 15 -4 8 4 15 2 15 -4 0 -12 -109 -54 -121
-46 -5 3 -9 10 -9 17 0 8 3 8 11 0 14 -14 79 15 72 34 -3 7 0 13 6 13 6 0 11
-4 11 -10z m-820 -18 c0 -4 -9 -13 -20 -20 -17 -10 -20 -10 -20 2 0 8 8 17 18
19 9 3 18 5 20 6 1 0 2 -2 2 -7z m77 -18 c-5 -5 9 -56 30 -104 3 -8 7 -22 8
-30 1 -8 6 -28 10 -44 5 -18 4 -27 -2 -23 -5 3 -15 32 -22 64 -7 32 -19 68
-27 80 -17 27 -18 63 -2 63 6 0 9 -3 5 -6z m-127 -14 c0 -5 -4 -10 -10 -10 -5
0 -10 5 -10 10 0 6 5 10 10 10 6 0 10 -4 10 -10z m60 1 c0 -5 -7 -11 -15 -15
-15 -5 -20 5 -8 17 9 10 23 9 23 -2z m-250 -21 c0 -5 -1 -10 -3 -10 -1 0 -40
-15 -85 -34 -45 -19 -82 -32 -82 -30 0 2 0 6 0 9 0 3 3 5 6 4 4 0 10 3 13 8
10 14 81 47 87 40 4 -3 13 0 21 8 17 17 43 20 43 5z m1119 -4 c-10 -11 -138
-54 -143 -49 -12 12 -6 22 9 17 8 -4 30 0 48 9 51 23 100 36 86 23z m101 -29
c0 -4 -10 -12 -22 -16 -17 -7 -26 -5 -35 6 -18 24 4 42 34 29 12 -6 23 -15 23
-19z m-947 3 c-6 -24 -43 -48 -43 -29 0 13 30 47 42 48 3 1 4 -8 1 -19z m662
-10 c3 -5 -1 -10 -10 -10 -9 0 -13 5 -10 10 3 6 8 10 10 10 2 0 7 -4 10 -10z
m-910 -29 c3 -6 -4 -15 -16 -22 -17 -9 -23 -8 -30 2 -5 9 -2 16 9 21 24 9 30
9 37 -1z m1115 4 c0 -6 -26 -16 -70 -30 -35 -10 -16 7 23 22 37 13 47 15 47 8z
m-1560 -10 c0 -2 -10 -9 -22 -15 -22 -11 -22 -10 -4 4 21 17 26 19 26 11z m60
-87 c0 -21 -16 -32 -26 -17 -4 8 -3 9 4 5 15 -9 15 -7 -3 44 -8 23 -15 48 -14
54 1 16 38 -66 39 -86z m1627 75 c4 -12 -74 -39 -84 -29 -3 2 -2 13 1 23 4 14
16 19 43 18 20 0 38 -5 40 -12z m-1527 -8 c11 -13 10 -18 -5 -29 -19 -14 -13
-36 11 -36 8 0 14 -4 14 -10 0 -5 -1 -10 -2 -10 -2 0 -26 -9 -54 -19 l-50 -20
0 32 c0 18 -3 46 -7 62 -6 22 -3 19 9 -10 21 -50 18 -47 38 -39 9 3 16 13 16
21 0 10 -6 13 -16 9 -8 -3 -12 -2 -9 4 3 6 12 10 19 10 9 0 12 9 8 25 -5 28 9
33 28 10z m180 6 c0 -5 -11 -12 -24 -15 -13 -3 -26 -15 -29 -26 -5 -20 -37
-29 -37 -10 0 6 7 10 15 10 8 0 15 9 15 19 0 11 6 22 13 24 20 9 47 8 47 -2z
m370 -11 c6 9 10 11 10 3 0 -16 -37 -36 -51 -28 -7 5 -6 12 2 21 10 12 14 12
21 2 6 -10 10 -10 18 2z m740 0 c13 -8 13 -10 -2 -10 -9 0 -20 5 -23 10 -8 13
5 13 25 0z m288 -30 c14 -23 16 -21 -53 -39 -58 -16 -67 -14 -63 11 2 18 12
24 41 29 20 3 40 9 44 12 11 11 17 8 31 -13z m-163 0 c3 -5 -1 -10 -10 -10 -9
0 -13 5 -10 10 3 6 8 10 10 10 2 0 7 -4 10 -10z m-1105 -8 c0 -10 -50 -35 -57
-28 -2 2 5 7 16 11 12 3 21 11 21 16 0 5 5 9 10 9 6 0 10 -4 10 -8z m920 -18
c0 -8 -5 -12 -10 -9 -6 4 -8 11 -5 16 9 14 15 11 15 -7z m96 -11 c-7 -7 -26 7
-26 19 0 6 6 6 15 -2 9 -7 13 -15 11 -17z m54 23 c0 -2 -9 -6 -20 -9 -11 -3
-18 -1 -14 4 5 9 34 13 34 5z m265 -16 c12 -13 26 -18 49 -15 l31 5 -32 -12
c-37 -12 -40 -20 -18 -38 12 -10 15 -9 15 5 0 14 3 15 14 6 11 -9 15 -9 19 1
3 8 6 6 6 -6 1 -12 6 -16 16 -12 8 3 15 1 15 -3 0 -5 -18 -12 -40 -16 -48 -8
-52 -20 -8 -29 l31 -6 -23 -25 c-13 -14 -34 -25 -47 -25 -19 0 -23 5 -23 30 0
17 -1 30 -2 30 -2 0 -32 -9 -67 -20 -50 -16 -66 -18 -72 -8 -10 16 -2 28 21
28 10 0 22 5 26 12 5 8 11 6 19 -6 11 -14 14 -14 25 -1 7 8 16 12 21 9 5 -3 9
4 9 15 0 30 -11 32 -78 12 -60 -19 -72 -18 -72 3 0 17 73 37 82 23 6 -9 10 -9
16 1 5 7 15 12 23 10 14 -3 15 5 4 35 -10 24 17 22 40 -3z m-1576 -11 c-10 -6
-8 -9 8 -9 24 0 51 -36 32 -42 -6 -2 7 -37 29 -81 22 -42 36 -80 31 -83 -5 -3
-12 2 -15 11 -4 9 -13 14 -22 10 -12 -4 -12 -3 -3 9 15 17 2 27 -27 20 -11 -4
-18 -12 -16 -19 3 -8 -8 -17 -27 -24 -40 -14 -39 -14 -33 3 3 8 13 12 25 9 11
-3 19 0 19 8 0 7 10 23 22 36 12 13 17 23 10 23 -9 0 -24 28 -27 50 -2 14 -18
30 -31 30 -8 0 -12 -5 -9 -10 6 -10 -63 -45 -72 -36 -2 2 5 7 16 11 13 4 19
11 15 18 -4 7 -4 9 1 5 7 -6 50 38 50 52 1 14 18 30 27 24 6 -4 5 -10 -3 -15z
m509 -1 c-2 -6 -10 -14 -16 -16 -7 -2 -10 2 -6 12 7 18 28 22 22 4z m852 2 c0
-5 -4 -10 -9 -10 -5 0 -18 -3 -28 -6 -16 -5 -16 -4 1 10 23 18 36 20 36 6z
m-994 -13 c4 -4 -2 -7 -14 -7 -12 0 -22 4 -22 9 0 10 26 9 36 -2z m104 -3 c0
-8 -4 -12 -10 -9 -5 3 -10 10 -10 16 0 5 5 9 10 9 6 0 10 -7 10 -16z m100 -9
c0 -18 26 -20 33 -2 4 7 6 6 6 -4 1 -9 -9 -19 -21 -23 -35 -9 -38 -8 -38 19 0
14 5 25 10 25 6 0 10 -7 10 -15z m-310 -5 c0 -12 -50 -33 -58 -25 -4 3 4 8 16
12 12 3 22 9 22 14 0 5 5 9 10 9 6 0 10 -5 10 -10z m1040 -3 c8 0 29 3 45 7
18 4 13 -1 -15 -12 -33 -14 -49 -16 -62 -8 -10 6 -18 15 -18 19 0 5 8 6 18 2
9 -5 24 -8 32 -8z m-920 -6 c0 -5 -6 -12 -12 -14 -10 -4 -10 -8 1 -15 14 -10
7 -52 -13 -64 -23 -16 -38 -9 -33 15 4 12 2 29 -3 37 -6 10 -1 19 18 31 31 20
42 23 42 10z m550 -12 c0 -5 -4 -9 -10 -9 -5 0 -10 7 -10 16 0 8 5 12 10 9 6
-3 10 -10 10 -16z m64 6 c18 -13 17 -14 -7 -20 -34 -9 -52 2 -36 21 14 17 19
17 43 -1z m-464 -24 c0 -4 -11 -13 -25 -19 l-26 -12 18 24 c17 22 33 26 33 7z
m720 9 c0 -5 -2 -10 -4 -10 -3 0 -8 5 -11 10 -3 6 -1 10 4 10 6 0 11 -4 11
-10z m-975 -47 c-22 -15 -49 -18 -40 -3 3 6 13 10 21 10 8 0 14 5 14 11 0 5 5
7 12 3 7 -5 5 -11 -7 -21z m329 -3 c6 0 17 5 24 12 8 8 12 8 12 1 0 -11 -71
-44 -79 -37 -2 2 2 16 10 31 11 20 15 22 17 10 2 -10 9 -17 16 -17z m723 19
c8 -8 17 -8 33 1 12 6 24 9 27 6 3 -3 -7 -10 -22 -16 -29 -11 -65 -5 -65 11 0
12 14 11 27 -2z m-927 -23 c0 -8 3 -22 7 -32 5 -12 3 -15 -6 -9 -17 10 -4 -35
14 -50 7 -5 15 -22 19 -37 3 -14 9 -34 12 -45 5 -14 4 -15 -5 -3 -14 21 -20 9
-9 -20 7 -18 11 -21 17 -11 6 9 11 0 16 -26 4 -21 9 -49 12 -63 2 -14 6 -36 8
-50 2 -14 4 -25 5 -25 1 0 3 -15 5 -32 1 -18 1 -33 0 -33 -14 0 -35 36 -35 59
0 15 -13 66 -29 113 -16 48 -35 112 -42 142 -7 31 -16 56 -21 56 -4 0 -8 -4
-8 -10 0 -5 -5 -10 -11 -10 -6 0 -8 9 -3 23 9 31 14 34 24 17 8 -12 10 -11 11
5 1 11 1 28 0 38 -1 9 3 17 8 17 6 0 11 -6 11 -14z m605 4 c3 -5 20 -7 38 -4
l32 5 -28 -16 c-20 -12 -32 -13 -47 -5 -11 6 -20 15 -20 20 0 13 17 13 25 0z
m275 -11 c0 -5 -4 -9 -10 -9 -5 0 -10 7 -10 16 0 8 5 12 10 9 6 -3 10 -10 10
-16z m-1290 -3 c0 -14 -59 -41 -68 -31 -3 3 0 5 6 5 7 0 12 7 12 16 0 14 3 14
15 4 12 -10 15 -10 15 4 0 9 5 16 10 16 6 0 10 -6 10 -14z m560 -10 c0 -13
-20 -26 -41 -26 -10 0 22 38 34 39 4 1 7 -5 7 -13z m647 -8 c-3 -8 -6 -5 -6 6
-1 11 2 17 5 13 3 -3 4 -12 1 -19z m144 2 c9 0 22 -7 29 -15 15 -18 -1 -20
-18 -3 -9 9 -12 8 -12 -5 0 -9 4 -17 9 -17 5 0 15 -16 21 -36 8 -24 17 -34 26
-30 8 3 14 1 14 -4 0 -6 -10 -10 -23 -10 -17 0 -28 10 -42 38 -10 20 -20 46
-22 56 -2 11 -9 27 -15 35 -10 13 -10 14 2 4 8 -7 22 -13 31 -13z m69 -11 c0
-5 -4 -9 -10 -9 -5 0 -10 7 -10 16 0 8 5 12 10 9 6 -3 10 -10 10 -16z m-1302
-14 c-3 -3 -9 2 -12 12 -6 14 -5 15 5 6 7 -7 10 -15 7 -18z m202 11 c0 -8 -15
-19 -32 -25 -30 -10 -31 -9 -13 4 11 8 25 19 30 24 14 14 15 13 15 -3z m1215
-7 c-9 -13 9 -11 23 3 6 6 15 8 19 4 14 -13 -31 -38 -59 -32 -19 4 -28 0 -33
-12 -6 -16 -7 -16 -16 1 -13 22 12 50 35 41 9 -3 16 -1 16 6 0 6 5 8 10 5 6
-4 8 -11 5 -16z m-887 -14 c40 10 24 0 -45 -28 -54 -22 -61 -23 -51 -7 6 10
18 16 25 13 8 -3 13 -1 11 3 -2 5 4 17 12 26 13 14 15 14 18 1 3 -11 11 -13
30 -8z m1063 -2 c-12 -20 -14 -14 -5 12 4 9 9 14 11 11 3 -2 0 -13 -6 -23z
m-393 -2 c3 -8 -1 -12 -9 -9 -7 2 -15 10 -17 17 -3 8 1 12 9 9 7 -2 15 -10 17
-17z m109 -38 c-3 -3 -11 -2 -17 2 -8 5 -7 11 2 22 12 15 13 14 16 -1 2 -10 1
-20 -1 -23z m-1517 7 c0 -5 -2 -10 -4 -10 -3 0 -8 5 -11 10 -3 6 -1 10 4 10 6
0 11 -4 11 -10z m230 -20 c-10 -7 -12 -12 -4 -17 13 -9 25 -63 14 -63 -11 0 0
-39 12 -46 14 -9 27 15 21 35 -4 10 0 9 10 -4 9 -11 11 -21 6 -23 -16 -6 -10
-19 12 -25 15 -4 19 -11 14 -26 -4 -13 0 -23 12 -30 13 -7 18 -22 18 -53 0
-30 4 -42 13 -40 9 2 11 -4 7 -18 -3 -11 -2 -20 4 -20 13 0 24 -37 16 -51 -5
-7 -19 1 -38 21 -21 21 -27 34 -19 39 16 10 4 48 -18 54 -11 3 -21 2 -24 0 -7
-7 22 -76 36 -84 6 -4 7 -12 3 -19 -6 -9 -4 -11 5 -5 8 5 11 3 8 -6 -3 -8 -11
-14 -18 -14 -17 0 -53 126 -40 139 14 14 12 26 -3 20 -10 -3 -18 12 -27 51
-15 62 -38 104 -41 73 -1 -10 -2 -24 -3 -30 0 -7 -20 -20 -44 -28 -37 -13 -44
-13 -52 0 -5 8 -6 19 -2 25 4 6 8 3 10 -7 5 -27 24 -21 54 16 l28 35 -21 35
-21 36 31 17 c17 10 31 25 31 33 0 11 3 11 12 2 10 -10 10 -15 -2 -22z m205 1
c-6 -5 -21 -12 -34 -16 -21 -6 -22 -5 -10 8 8 8 20 12 28 9 11 -4 13 -1 7 14
-6 15 -5 17 5 7 8 -8 9 -16 4 -22z m-400 9 c3 -5 1 -10 -4 -10 -6 0 -11 5 -11
10 0 6 2 10 4 10 3 0 8 -4 11 -10z m749 -18 c-10 -10 -113 -52 -125 -52 -12 0
34 46 54 53 9 3 17 2 17 -4 0 -12 43 -1 49 13 1 5 6 7 9 3 3 -3 1 -9 -4 -13z
m-634 -11 c0 -9 -71 -41 -90 -41 -6 0 -10 5 -10 11 0 5 4 8 9 5 13 -8 72 14
65 25 -3 5 2 9 10 9 9 0 16 -4 16 -9z m819 -5 c-2 -2 -27 -11 -56 -19 -45 -14
-52 -14 -57 -1 -4 11 -1 14 12 10 10 -4 36 0 58 8 35 12 55 13 43 2z m-502
-18 c-2 -12 -9 -24 -16 -26 -9 -3 -9 2 0 22 15 32 20 33 16 4z m-197 -8 c0 -5
-4 -10 -10 -10 -5 0 -10 5 -10 10 0 6 5 10 10 10 6 0 10 -4 10 -10z m719 -36
c1 -5 -22 -18 -51 -27 -86 -27 -80 12 9 58 25 13 29 13 35 -3 4 -9 7 -22 7
-28z m-1044 26 c3 -5 1 -10 -4 -10 -6 0 -11 5 -11 10 0 6 2 10 4 10 3 0 8 -4
11 -10z m225 -24 c0 -7 -17 -18 -39 -24 -47 -14 -51 -15 -51 -2 0 5 6 7 14 4
8 -3 16 3 19 16 3 12 10 19 16 16 5 -4 12 -2 16 4 8 13 25 3 25 -14z m250 4
c-8 -5 -17 -7 -19 -4 -3 3 1 9 9 14 8 5 17 7 19 4 3 -3 -1 -9 -9 -14z m385 10
c6 -9 -56 -40 -81 -40 -18 0 -18 26 0 33 7 3 18 1 23 -4 11 -11 43 -2 43 12 0
12 7 11 15 -1z m862 -16 c-3 -3 -12 -4 -19 -1 -8 3 -5 6 6 6 11 1 17 -2 13 -5z
m-1174 -24 c3 -11 3 -20 1 -20 -2 0 -8 9 -14 20 -6 11 -7 20 -2 20 6 0 12 -9
15 -20z m-23 -11 c0 -6 -4 -8 -9 -5 -5 3 -11 -1 -15 -9 -7 -19 -26 -19 -26 0
0 8 7 15 15 15 8 0 15 5 15 11 0 5 5 7 10 4 6 -3 10 -11 10 -16z m220 -3 c0
-2 -7 -7 -16 -10 -8 -3 -12 -2 -9 4 6 10 25 14 25 6z m795 -6 c-3 -5 -14 -10
-23 -10 -15 0 -15 2 -2 10 20 13 33 13 25 0z m-689 -25 c11 3 4 -2 -13 -11
-38 -20 -48 -15 -38 17 7 21 9 21 20 6 7 -11 20 -15 31 -12z m614 6 c0 -5 -7
-12 -16 -15 -14 -5 -15 -4 -4 9 14 17 20 19 20 6z m-387 -21 c3 -11 1 -20 -4
-20 -5 0 -9 5 -9 11 0 6 -9 8 -20 4 -11 -3 -20 -2 -20 4 0 8 14 15 41 20 4 0
9 -8 12 -19z m-529 4 c27 -10 18 -29 -19 -40 -28 -9 -35 -8 -35 2 0 7 5 16 10
19 6 3 10 2 10 -3 0 -6 10 -8 21 -5 21 6 21 7 4 20 -20 14 -16 17 9 7z m453
-11 c2 -6 -6 -14 -18 -18 -27 -9 -47 16 -21 27 21 8 35 5 39 -9z m-1031 -91
c7 -23 26 -1 21 24 -5 26 18 41 27 18 3 -8 1 -14 -5 -14 -6 0 -9 -6 -6 -14 6
-15 -23 -39 -60 -48 -18 -5 -24 0 -34 29 -14 44 -5 54 11 11 14 -39 26 -20 12
20 -6 18 -6 31 2 38 8 9 13 4 20 -20 4 -17 10 -37 12 -44z m779 68 c-3 -5 -11
-10 -16 -10 -6 0 -7 5 -4 10 3 6 11 10 16 10 6 0 7 -4 4 -10z m85 -15 c5 3 12
1 15 -5 5 -8 11 -7 21 1 10 8 14 8 14 0 0 -6 -5 -11 -10 -11 -6 0 -14 -9 -18
-21 -8 -20 -8 -19 -22 5 -7 14 -19 26 -26 26 -8 0 -11 6 -7 16 5 15 7 15 15 0
5 -9 13 -14 18 -11z m495 15 c-27 -12 -43 -12 -25 0 8 5 22 9 30 9 10 0 8 -3
-5 -9z m-1131 -16 c12 -16 66 -11 66 7 0 5 5 9 10 9 6 0 10 -4 10 -8 0 -12
-46 -32 -71 -32 -12 0 -19 -5 -16 -12 2 -7 11 -13 20 -13 9 0 22 -6 29 -13 16
-16 31 -15 25 2 -3 8 1 17 9 20 8 3 14 4 14 2 0 -3 2 -11 5 -18 4 -10 -7 -18
-35 -27 -43 -13 -54 -31 -19 -31 18 0 19 -2 9 -15 -10 -13 -9 -15 10 -15 15 0
20 4 16 15 -3 9 3 19 14 25 17 9 20 7 20 -15 0 -14 -4 -25 -9 -25 -5 0 -22 -5
-38 -11 -24 -9 -26 -12 -11 -20 10 -5 15 -16 12 -24 -7 -18 12 -20 23 -2 4 6
16 18 26 26 17 13 17 13 6 -12 -7 -15 -21 -29 -33 -33 -12 -3 -36 -12 -54 -21
-19 -8 -36 -12 -40 -8 -3 3 4 8 16 12 15 3 21 11 18 22 -3 9 -14 57 -26 106
-11 50 -23 98 -26 108 -7 21 5 22 20 1z m1166 -4 c0 -5 -2 -10 -4 -10 -3 0 -8
5 -11 10 -3 6 -1 10 4 10 6 0 11 -4 11 -10z m-140 -20 c-24 -15 -36 -11 -14 4
10 8 21 12 24 10 2 -3 -2 -9 -10 -14z m-1694 -37 c-11 -11 -19 6 -11 24 8 17
8 17 12 0 3 -10 2 -21 -1 -24z m1045 22 c1 -17 -18 -17 -25 0 -4 11 -1 15 10
13 8 -2 15 -7 15 -13z m714 5 c-3 -5 -14 -10 -23 -10 -15 0 -15 2 -2 10 20 13
33 13 25 0z m-745 -19 c0 -5 -9 -11 -21 -14 -16 -4 -18 -3 -8 9 13 16 29 19
29 5z m610 5 c0 -2 -9 -6 -20 -9 -11 -3 -18 -1 -14 4 5 9 34 13 34 5z m75 -5
c-15 -13 -105 -45 -111 -39 -2 3 19 14 48 26 60 23 77 26 63 13z m355 5 c0 -2
-8 -10 -17 -17 -16 -13 -17 -12 -4 4 13 16 21 21 21 13z m-1540 -29 c0 -7 -13
-18 -30 -24 -35 -13 -40 -1 -8 21 27 19 38 20 38 3z m1488 -13 c-9 -9 -67 -27
-134 -40 -66 -13 -132 -28 -149 -33 -63 -19 -177 -43 -181 -38 -3 2 84 26 193
51 109 26 216 53 238 61 52 18 52 18 33 -1z m-518 -4 c-8 -5 -19 -10 -25 -10
-5 0 -3 5 5 10 8 5 20 10 25 10 6 0 3 -5 -5 -10z m-460 -14 c0 -2 -7 -9 -15
-16 -13 -11 -14 -10 -9 4 5 14 24 23 24 12z m500 -16 c-8 -5 -24 -9 -35 -9
l-20 0 20 9 c11 5 27 9 35 9 13 1 13 0 0 -9z m-1585 -11 c11 -17 -1 -21 -15
-4 -8 9 -8 15 -2 15 6 0 14 -5 17 -11z m530 4 c-11 -3 -25 -10 -32 -15 -7 -5
-17 -7 -24 -3 -17 11 10 25 46 24 21 -1 24 -3 10 -6z m53 -14 c-2 -6 -8 -10
-13 -10 -5 0 -11 4 -13 10 -2 6 4 11 13 11 9 0 15 -5 13 -11z m90 -45 c13 -45
15 -71 6 -61 -4 3 -12 32 -20 63 -14 64 -4 62 14 -2z m848 36 c0 -21 -12 -27
-18 -9 -5 16 -38 -1 -38 -20 0 -12 -2 -13 -8 -3 -12 18 -62 -2 -62 -24 0 -12
-6 -15 -23 -10 -32 8 -97 -12 -97 -29 0 -18 -16 -20 -23 -2 -3 9 37 29 127 64
72 28 133 51 136 52 3 1 6 -8 6 -19z m-962 -47 c10 -26 0 -25 -18 1 -13 20
-13 24 -2 20 8 -3 17 -13 20 -21z m-50 2 c-4 -8 -10 -15 -15 -15 -5 0 -9 7 -9
15 0 8 7 15 15 15 9 0 12 -6 9 -15z m91 -25 c-6 -9 -9 -9 -16 1 -10 17 0 34
13 21 6 -6 7 -16 3 -22z m145 10 c0 -5 -5 -10 -11 -10 -5 0 -7 5 -4 10 3 6 8
10 11 10 2 0 4 -4 4 -10z m-343 -52 c-3 -8 -6 -5 -6 6 -1 11 2 17 5 13 3 -3 4
-12 1 -19z m853 -9 c0 -5 -4 -9 -10 -9 -5 0 -10 7 -10 16 0 8 5 12 10 9 6 -3
10 -10 10 -16z m-85 -5 c-11 -9 -40 -25 -65 -36 -25 -11 -69 -31 -98 -45 -29
-14 -55 -23 -59 -20 -3 4 23 19 58 34 35 15 87 39 114 54 56 31 80 36 50 13z
m-1325 -14 c0 -5 -4 -10 -10 -10 -5 0 -10 5 -10 10 0 6 5 10 10 10 6 0 10 -4
10 -10z m1390 -28 c0 -7 -4 -10 -10 -7 -5 3 -10 16 -10 28 0 18 2 19 10 7 5
-8 10 -21 10 -28z m-400 -117 c0 -8 -62 -37 -67 -31 -3 3 10 12 28 20 42 18
39 17 39 11z m-700 -65 c0 -5 -4 -10 -10 -10 -5 0 -10 5 -10 10 0 6 5 10 10
10 6 0 10 -4 10 -10z m-170 -20 c0 -5 -2 -10 -4 -10 -3 0 -8 5 -11 10 -3 6 -1
10 4 10 6 0 11 -4 11 -10z m645 -40 c6 -10 -21 -24 -73 -37 -24 -6 -26 -5 -13
10 7 10 28 21 45 26 17 5 32 10 33 10 1 1 5 -4 8 -9z m-175 -70 c-8 -5 -24
-10 -35 -10 -17 0 -17 2 -5 10 8 5 24 10 35 10 17 0 17 -2 5 -10z m-316 -115
c-10 -8 -28 -15 -39 -15 -12 0 -26 -5 -33 -12 -8 -8 -12 -9 -12 -1 0 6 19 18
43 26 55 20 65 20 41 2z"/>
<path d="M1396 4388 c12 -19 278 -350 347 -431 10 -12 15 -15 11 -7 -14 26
-126 171 -233 299 -57 69 -105 131 -108 138 -3 7 -9 13 -15 13 -5 0 -6 -5 -2
-12z"/>
<path d="M1128 1523 c7 -3 16 -2 19 1 4 3 -2 6 -13 5 -11 0 -14 -3 -6 -6z"/>
<path d="M1210 1366 c0 -8 5 -18 10 -21 6 -3 10 1 10 9 0 8 -4 18 -10 21 -5 3
-10 -1 -10 -9z"/>
<path d="M1824 1184 c3 -9 6 -20 6 -25 0 -5 7 -9 16 -9 11 0 14 5 10 16 -3 9
-6 20 -6 25 0 5 -7 9 -16 9 -11 0 -14 -5 -10 -16z"/>
<path d="M1905 1110 c-3 -5 -2 -10 4 -10 5 0 13 5 16 10 3 6 2 10 -4 10 -5 0
-13 -4 -16 -10z"/>
<path d="M1867 1063 c-10 -15 4 -53 19 -53 8 0 14 6 14 13 0 20 -26 52 -33 40z"/>
<path d="M716 932 c-3 -5 1 -9 9 -9 8 0 12 4 9 9 -3 4 -7 8 -9 8 -2 0 -6 -4
-9 -8z"/>
<path d="M265 898 c-4 -10 -4 -26 0 -35 8 -17 8 -17 12 0 3 9 3 25 0 35 -4 16
-4 16 -12 0z"/>
<path d="M3042 3130 c14 -22 24 -19 15 5 -4 8 -11 15 -17 15 -6 0 -6 -7 2 -20z"/>
<path d="M4510 2784 c0 -5 14 -25 31 -44 l31 -35 -19 33 c-19 35 -43 61 -43
46z"/>
<path d="M4470 2721 c0 -5 7 -15 17 -22 15 -13 15 -12 4 9 -12 23 -21 28 -21
13z"/>
<path d="M1250 1230 c0 -5 5 -10 10 -10 6 0 10 5 10 10 0 6 -4 10 -10 10 -5 0
-10 -4 -10 -10z"/>
<path d="M1090 877 c0 -19 16 -31 24 -18 3 5 -1 14 -9 21 -12 10 -15 10 -15
-3z"/>
<path d="M2830 4959 c0 -5 5 -7 10 -4 6 3 10 8 10 11 0 2 -4 4 -10 4 -5 0 -10
-5 -10 -11z"/>
<path d="M2940 4731 c0 -5 5 -13 10 -16 6 -3 10 -2 10 4 0 5 -4 13 -10 16 -5
3 -10 2 -10 -4z"/>
<path d="M2555 3960 c3 -5 16 -10 28 -9 21 0 21 1 2 9 -28 12 -37 12 -30 0z"/>
<path d="M2645 3930 c50 -25 58 -25 20 0 -16 11 -37 20 -45 20 -8 0 3 -9 25
-20z"/>
<path d="M2760 3926 c0 -2 20 -16 44 -30 25 -14 59 -46 77 -71 18 -25 34 -45
36 -45 11 0 -36 66 -65 91 -31 28 -92 64 -92 55z"/>
<path d="M2735 3880 c10 -11 20 -20 23 -20 3 0 -3 9 -13 20 -10 11 -20 20 -23
20 -3 0 3 -9 13 -20z"/>
<path d="M4958 3849 c-22 -23 -10 -31 20 -15 19 10 21 15 10 23 -9 7 -18 5
-30 -8z"/>
<path d="M3201 3721 c-8 -5 -10 -14 -6 -21 6 -9 10 -8 17 4 12 21 7 28 -11 17z"/>
<path d="M3226 3648 c3 -4 9 -8 15 -8 5 0 9 4 9 8 0 5 -7 9 -15 9 -8 0 -12 -4
-9 -9z"/>
<path d="M3260 3611 c0 -6 4 -13 10 -16 6 -3 7 1 4 9 -7 18 -14 21 -14 7z"/>
<path d="M3315 3460 c22 -45 29 -52 20 -20 -4 14 -14 32 -22 40 -12 12 -11 7
2 -20z"/>
<path d="M3460 3229 c0 -5 5 -7 10 -4 6 3 10 8 10 11 0 2 -4 4 -10 4 -5 0 -10
-5 -10 -11z"/>
<path d="M3526 3067 c3 -10 9 -15 12 -12 3 3 0 11 -7 18 -10 9 -11 8 -5 -6z"/>
<path d="M3590 2970 c-8 -5 -12 -11 -10 -14 3 -2 14 2 24 10 22 15 10 19 -14
4z"/>
<path d="M3700 2715 c0 -5 5 -17 10 -25 5 -8 10 -10 10 -5 0 6 -5 17 -10 25
-5 8 -10 11 -10 5z"/>
<path d="M4771 2577 c2 -2 20 -14 39 -26 l35 -23 -28 26 c-15 14 -33 26 -39
26 -6 0 -9 -1 -7 -3z"/>
<path d="M3663 1964 c-44 -26 -56 -38 -26 -27 10 4 14 2 9 -5 -3 -6 2 -16 13
-22 14 -7 22 -7 27 2 4 6 3 8 -2 5 -6 -3 -16 -2 -23 2 -10 7 -8 14 9 31 18 18
24 20 31 9 5 -8 9 -11 9 -7 0 3 3 13 6 22 9 22 -4 20 -53 -10z"/>
<path d="M1945 628 c-68 -16 -207 -60 -203 -63 10 -10 268 58 268 71 0 5 -17
3 -65 -8z"/>
<path d="M1540 531 c0 -5 9 -7 20 -4 11 3 20 7 20 9 0 2 -9 4 -20 4 -11 0 -20
-4 -20 -9z"/>
<path d="M1315 453 c-49 -19 -98 -36 -110 -37 -11 -1 -33 -10 -50 -19 -25 -13
-26 -16 -10 -17 19 0 271 93 283 105 13 13 -30 1 -113 -32z"/>
<path d="M1117 290 c-54 -4 -101 -11 -105 -15 -4 -4 18 -5 48 -1 30 3 81 6
113 6 31 0 57 5 57 10 0 6 -3 9 -7 9 -5 -1 -52 -5 -106 -9z"/>
<path d="M1490 280 c-8 -5 -10 -10 -5 -10 6 0 17 5 25 10 8 5 11 10 5 10 -5 0
-17 -5 -25 -10z"/>
<path d="M1440 260 c-8 -5 -10 -10 -5 -10 6 0 17 5 25 10 8 5 11 10 5 10 -5 0
-17 -5 -25 -10z"/>
<path d="M1101 210 c-116 -46 -195 -88 -106 -57 45 16 238 98 244 103 13 11
-27 -2 -138 -46z"/>
<path d="M1363 232 c-41 -17 -65 -33 -47 -31 14 1 110 47 99 48 -5 0 -29 -8
-52 -17z"/>
<path d="M1030 220 c-8 -5 -10 -10 -5 -10 6 0 17 5 25 10 8 5 11 10 5 10 -5 0
-17 -5 -25 -10z"/>
<path d="M980 200 c-8 -5 -10 -10 -5 -10 6 0 17 5 25 10 8 5 11 10 5 10 -5 0
-17 -5 -25 -10z"/>
<path d="M1240 180 c-8 -5 -10 -10 -5 -10 6 0 17 5 25 10 8 5 11 10 5 10 -5 0
-17 -5 -25 -10z"/>
<path d="M1102 125 c-108 -45 -138 -63 -87 -51 33 8 216 94 200 94 -5 1 -57
-19 -113 -43z"/>
<path d="M1930 160 c-9 -6 -10 -10 -3 -10 6 0 15 5 18 10 8 12 4 12 -15 0z"/>
<path d="M1820 139 c0 -5 5 -7 10 -4 6 3 10 8 10 11 0 2 -4 4 -10 4 -5 0 -10
-5 -10 -11z"/>
<path d="M1882 141 c-11 -7 -10 -9 3 -14 9 -4 14 -3 10 2 -3 5 1 12 7 14 7 3
9 6 3 6 -5 0 -16 -3 -23 -8z"/>
<path d="M1693 95 c-52 -24 -74 -43 -30 -26 57 23 111 51 97 51 -8 0 -39 -11
-67 -25z"/>
<path d="M1770 92 c-36 -15 -74 -33 -85 -40 -19 -12 -19 -13 3 -7 32 9 152 64
152 70 0 6 5 8 -70 -23z"/>
<path d="M542 65 c-69 -25 -85 -35 -58 -35 19 0 115 38 131 52 14 12 -2 8 -73
-17z"/>
<path d="M555 34 c-48 -24 -61 -33 -40 -30 42 6 125 43 125 56 0 15 -7 12 -85
-26z"/>
<path d="M1570 34 l-25 -15 25 7 c14 3 29 10 35 15 15 14 -7 10 -35 -7z"/>
<path d="M315 30 c3 -5 11 -10 16 -10 6 0 7 5 4 10 -3 6 -11 10 -16 10 -6 0
-7 -4 -4 -10z"/>
<path d="M610 14 l-25 -13 33 -1 c17 0 32 4 32 9 0 18 -15 19 -40 5z"/>
<path d="M1599 13 c-13 -15 -12 -15 11 -3 34 17 36 20 18 20 -9 0 -22 -7 -29
-17z"/>
<path d="M355 10 c3 -5 10 -10 16 -10 5 0 9 5 9 10 0 6 -7 10 -16 10 -8 0 -12
-4 -9 -10z"/>
<path d="M1510 10 c-13 -8 -13 -10 2 -10 9 0 20 5 23 10 8 13 -5 13 -25 0z"/>
<path d="M818 3 c7 -3 16 -2 19 1 4 3 -2 6 -13 5 -11 0 -14 -3 -6 -6z"/>
</g>
</svg>
